<?xml version="1.0" encoding="UTF-8"?>
<svg id="Layer_1" data-name="Layer 1" xmlns="http://www.w3.org/2000/svg" width="250" height="59.95669" viewBox="0 0 250 59.95669">
  <g>
    <path d="M194.14839,43.6206c.04037,1.99219-1.03126,2.38021-2.76172,2.35678-4.61069-.08724-9.23699-.17448-13.84638-.00781-2.26172.07943-3.00782-.60287-2.91277-2.88021.15885-3.93621.04818-7.89585.04818-11.83987h-.29427c0-3.8086.10287-7.62502-.04818-11.42711-.0638-1.76172.49219-2.32553,2.19792-2.30079,4.74479.05599,9.49091.01562,14.2357-.03906,1.53906-.01562,2.52344.32552,2.47527,2.17448-.04037,1.72917-1.07943,1.81771-2.36459,1.82553-3.03126.00781-6.07032.1276-9.10158.07943-2.92839-.04036-2.92839,1.84115-2.96746,3.99089-.04818,2.25391.54687,3.53907,3.08724,3.34115,1.70573-.1263,3.43621.03125,5.14194-.0638,1.71355-.08724,2.29297.65104,2.34115,2.31771.0638,1.86459-.88932,2.2461-2.42839,2.1823-1.05599-.04036-2.11068-.01562-3.16667-.01562-4.72137-.03125-6.21355,2.04688-4.91146,6.59376.45182,1.58724,1.54688,1.58724,2.73829,1.60287,3.30078.03125,6.59377.05599,9.89455.03906,1.46745-.00781,2.61069.20573,2.64194,2.07162l.0013-.0013Z"/>
    <path d="M249.87507,39.48648c-.66667,4.28517-4.65756,7.18882-9.96617,7.25262-5.52345.05599-9.82423-2.54688-10.49872-6.51434-.17448-.98438-1.09506-2.58724.74609-2.94402,1.30078-.25391,2.67449-.38151,3.52345,1.53125,1.49219,3.34897,5.17319,4.63412,8.51434,3.26172,1.58724-.65104,3.10287-1.53907,3.09506-3.6823-.00782-1.99219-1.07161-3.27735-2.77734-3.93621-2.32552-.91276-4.78517-1.5-7.10939-2.41277-4.3086-1.70573-5.95183-4.56251-5.14976-8.60939.84114-4.22917,4.72917-6.8633,9.87893-6.70574,4.15757.13542,7.74481,3.01563,8.20445,6.65757.13542,1.00782.54817,2.19792-1.11849,2.39584-1.35678.16667-2.67449.3099-3.26954-1.3724-1.13542-3.22917-3.64975-3.45183-6.45965-2.84115-1.41276.3099-2.32552,1.26953-2.59506,2.69011-.27734,1.51563.46875,2.5625,1.8086,3.15756,2.0547.90495,4.09505,1.84115,6.20575,2.60287,5.45183,1.95964,7.66538,4.91147,6.96746,9.46617l-.00002.0026Z"/>
    <path d="M159.52071,17.72081c-4.19792-.73047-8.44272-.03906-12.62502-.47656-2.68229-.27734-3.14193.95182-3.07162,3.20574.10287,3.81641.02344,7.64194.02344,11.46617h.16667c0,4.07813.04037,8.16538-.02344,12.25133-.02344,1.55469.60287,2.09506,2.09505,2.08724,1.39583,0,2.26954-.30208,2.1823-1.95183-.08725-1.57943.14323-3.1823-.0638-4.73699-.45182-3.34897.51562-4.9909,4.22137-4.49871,2.07162.26953,4.22137.10287,6.32422-.02344,4.6823-.26953,7.48308-3.14975,7.72918-7.83205.26172-4.92709-2.53125-8.72137-6.95964-9.49091h.00129ZM161.92566,26.86145c-.23047,1.90495-1.3724,3.22136-3.18229,3.60287-1.65105.35677-3.39583.29427-4.95964.41276-1.90495-.42839-4.57814,1.05599-5.26954-.73047-.84896-2.17448-.27734-4.91147-.26172-7.40366,0-.5638.4362-1,1.02344-1,3.53126.01562,7.15756-.69792,10.52997.81771,1.7461.77735,2.34115,2.4362,2.1185,4.30079h.00129Z"/>
    <path d="M219.19271,37.11668c-2.02345-2.26172-2.46745-3.66667.58724-5.63413,2.85677-1.84896,2.86459-5.23699,1.96745-8.28387-.79297-2.69792-2.68229-4.6185-5.60938-4.89584-3.53908-.33333-7.10158-.32552-10.64977-.59505-2.85677-.21484-3.62631,1.1263-3.4909,3.75391.16667,3.42058.04037,6.84767.04037,10.26825h.056c0,3.82423.04037,7.64976-.02344,11.47398-.01562,1.51563.15105,2.59506,2.09505,2.45964,1.54688-.11068,2.54689-.48438,2.34897-2.32552-.17448-1.56381-.22265-3.14975-.29297-4.72918-.17448-3.73699.88802-4.57814,4.38802-3.41147,4.15886,1.38021,5.82423,4.78517,6.49872,8.68101.38932,2.25391,1.79298,1.9362,3.18229,1.80078,1.94402-.19792,1.26953-1.55599,1.03906-2.6823-.42839-2.07162-.70574-4.29298-2.13412-5.88022h-.00259ZM214.23307,30.02292c-1.94402.34115-3.9362.58724-5.90365.55599-2.58724-.04818-2.3724-2.21355-2.17448-3.81641.20572-1.66667-1.30209-4.28517,1.96745-4.69011.90494-.11068,1.84115-.01562,3.65756-.01562.16667.00781,1.23829-.04036,2.26954.14323,2.00782.36458,3.53126,1.57162,3.6185,3.63412.09505,2.1823-1.18229,3.80079-3.43621,4.19011l.00129-.00131Z"/>
  </g>
  <g>
    <path d="M116.12999,1.97598h0c-5.47527-2.34245-11.15367-2.12369-16.88806-.84635-4.9909,1.10937-8.56642,3.77994-11.75784,7.3073h0C82.87862,3.91739,76.85908.97728,69.92807.14265c-7.53517-.90365-17.48181,2.59766-22.79822,7.34246h0C38.33946-.23105,26.11028-1.93679,18.03474,2.1713c1.18881-.23828,2.36849-.42578,3.53907-.5573,6.41799-.72786,12.57685.20313,18.43233,3.58855,2.03255,1.17708,3.84897,2.51043,5.45053,4.00261.26302.24349.51953.49219.77084.7461.03255.03255.0638.0651.09635.09766,1.91602,1.94971,3.49421,4.14991,4.7399,6.60152.96887,1.90681,1.7366,3.96571,2.30569,6.17714,2.70444,10.50263-.53907,20.99093-8.04428,27.5873-1.5625,1.375-3.30861,2.57943-5.22527,3.58074-8.58465,4.48829-21.05473,4.45705-24.97922-.0638,12.94534,2.16016,22.50135.26563,28.74094-5.72006h0c.0599-.056.11849-.11328.17578-.17057.19401-.1888.38412-.38281.56901-.58073.2902-.30681.57256-.62326.84706-.94935.13726-.16305.27255-.32851.40588-.49638,1.06671-1.34298,2.00813-2.84038,2.82525-4.49254.10214-.20652.20233-.41545.30059-.62681.29477-.63406.57208-1.28989.83197-1.96751.08663-.22587.17133-.45416.25409-.68487.42444-1.1803.74035-2.4034.95349-3.65337.07105-.41665.13067-.83629.1791-1.25834.04842-.42203.08565-.84648.11188-1.27271.03497-.56833.05041-1.13985.04682-1.7132-.00719-1.1467-.0905-2.30065-.24589-3.45068-.11655-.86252-.27363-1.72282-.46954-2.57621-.19592-.85338-.43066-1.69984-.70253-2.53466-.04532-.13914-.09165-.27795-.13901-.41641-.47365-1.38467-1.04962-2.73481-1.72-4.02859-.06704-.12937-.13502-.25819-.20394-.38642-.13783-.25646-.27941-.51057-.42467-.76217-.14527-.2516-.2942-.50068-.44677-.74707-.68652-1.10875-1.44631-2.16301-2.27358-3.14684h0c-.17318-.20833-.35156-.41405-.53386-.61457h0c-.0638-.07292-.13021-.14584-.19531-.21745h0s0,0,0,0c-1.51823-1.65235-3.23829-3.07422-5.12892-4.1784-5.52865-3.23177-12.59638-3.92709-19.02478-2.43099-4.97527,1.15756-9.56643,3.63022-12.76175,7.25652C2.41491,17.41482-.30254,23.53202.02689,30.62839c.42969,9.46356,5.1224,16.7318,12.69664,22.39587-3.90105-.3138-5.89064-3.45443-9.40757-5.71876,7.01824,12.32945,25.55995,16.30863,38.67977,8.98439,1.88933-1.05599,3.6211-2.30469,5.18491-3.70834,7.1797,7.37241,19.07165,9.41017,31.29433,5.23568,2.59506-.88802,5.12111-2.47005,7.4297-4.51433,4.76043,4.49611,11.46227,6.81121,19.44665,6.37892,12.77607,1.27735,28.68496-11.19403,30.36985-24.22792.17969-1.39453.26563-2.78776.26563-4.16668,0-12.41539-7.23049-23.91411-19.85681-29.31126ZM21.86547,16.22341c3.64194.28255,7.29949.27474,10.93492.61198,3.00782.28906,4.94271,2.25521,5.75652,5.02866.92449,3.13282.90886,6.61069-2.02083,8.50652-3.13282,2.02084-2.67839,3.46225-.60287,5.78127,1.47266,1.62891,1.75391,3.91667,2.19271,6.03908.24349,1.15885.9323,2.55339-1.06511,2.75651-1.4336.14193-2.86719.47005-3.26563-1.85547-.69792-3.9948-2.40496-7.49741-6.67449-8.91408-3.59506-1.19141-4.68361-.32943-4.51173,3.50912.07813,1.6211.125,3.25.30599,4.85548.20313,1.89584-.82292,2.27214-2.41277,2.38152-1.9974.14192-2.17058-.96355-2.14584-2.52214.0625-3.92449.02344-7.85679.02344-11.78128h-.0638c0-3.51693.13411-7.03386-.03907-10.53517-.13281-2.70183.65886-4.08074,3.58855-3.86199ZM75.12991,45.29247h0c-4.55079-.08593-9.1172-.17188-13.6693-.00781-2.23178.07813-2.96746-.59505-2.8737-2.84375.15625-3.88543.03906-7.79299.03906-11.68622h-.28256c0-3.76043.09375-7.52736-.04687-11.27997-.07031-1.73829.47787-2.29558,2.16147-2.27214,4.69272.05599,9.37631.01562,14.06123-.03906,1.51953-.01562,2.49089.32161,2.44402,2.14714-.04818,1.70703-1.06511,1.79298-2.33464,1.80079-2.99219.00781-5.9922.1263-8.98439.07812-2.89063-.03906-2.89063,1.81771-2.93751,3.94011-.04687,2.22527.54818,3.4935,3.0547,3.29819,1.68489-.125,3.39193.03125,5.07553-.0625,1.69271-.08594,2.26433.64193,2.3112,2.28776.05469,1.83985-.88542,2.21615-2.39714,2.15366-1.04167-.03906-2.08334-.01562-3.12501-.01562-4.66016-.03125-6.13413,2.02083-4.84897,6.50913.44661,1.56641,1.52735,1.56641,2.70313,1.58203,3.25001.03125,6.50913.05469,9.76695.03906,1.44922-.00781,2.56901.20443,2.60938,2.04428.03776,1.96615-1.01954,2.35026-2.72657,2.32683ZM89.49451,49.549h0c-3.32943-2.56251-5.85808-6.05861-7.39195-10.05341-2.07553-5.38934-2.33334-11.68622-.28906-17.84378.08593-.27344.1875-.54037.28906-.80599.46745-1.26043,1.03516-2.47006,1.69141-3.6211.02474-.00652.05078-.01172.07552-.01693.10157-.21354.20443-.42709.3112-.63803,1.40755-2.31251,3.17318-4.37501,5.17449-6.1198h0c6.52996-5.70053,15.58596-8.0508,23.09379-4.83204-6.54949-.86979-12.65106.10156-18.40889,3.50912-1.30078.77083-2.53776,1.63021-3.68751,2.56641-4.00131,3.26043-6.93881,7.45835-7.77215,12.13675-.22656,1.26042-.38281,2.50652-.47786,3.72006-.13282,1.73177-.13282,3.41537,0,5.03647.52344,6.32423,3.10678,11.83987,8.04429,16.13805,2.02084,1.76172,4.43751,3.31771,7.26955,4.64324-2.97397-.73828-5.63673-2.0586-7.92189-3.81901ZM109.79405,45.97346h-.00131c-4.01824.29818-8.06773.02344-12.10159.16537-2.07553.07813-2.35808-1.07292-2.35026-2.67188.00261-1.37646.00391-2.75162.00391-4.12808.00042-.00115.00088-.00229.0013-.00344,0-2.65626-.00391-5.31381-.00391-7.97007h-.04036c0-1.77344.01302-3.54818.01693-5.32293.00391-1.40625.0013-2.81251-.01693-4.21746-.00261-.21484-.00521-.43099-.00912-.64584-.00002-.00104-.00003-.0017-.00005-.00273.00002.00004.00002.00009.00004.00013-.00103-.05589-.00165-.08867-.00186-.10014-.00029-.01668.00032.01589.00187.10014-.00261-.2487-.00781-.4974-.01302-.7461-.04687-2.05208.43099-3.05469,2.85157-2.99219,4.26823.10157,8.53778-.52474,12.82294.34506,6.34377,1.29948,10.47268,7.12762,10.15107,14.60028-.33724,7.66017-4.73178,13.11201-11.31122,13.58987ZM125.74068,48.53597h0c-.71484.69401-1.46876,1.31901-2.25782,1.86328-1.08985.7513-2.2474,1.34896-3.45964,1.75521,9.88544-8.60939,13.49612-18.70576,10.53517-31.67715,5.55731,7.17319,2.38932,21.06775-4.81772,28.05865Z"/>
    <path d="M103.2133,21.75467c-6.04689.40625-2.07553,5.25522-3.3685,7.78517-.25781.51693-.03125,1.28516-.03125,1.93491h.07812c0,2.47526-.03125,4.94271.00781,7.41798.01562,1.00261-.15625,2.34245,1.2461,2.4987,3.85288.43099,7.85679,1.21485,11.31903-1.29167,3.43099-2.49219,4.44141-6.31381,3.58725-10.12112-1.50391-6.67319-4.81772-8.76434-12.83857-8.22397Z"/>
    <path d="M22.55427,25.5216h0c-.20313,1.64454-.42318,3.87762,2.23307,3.91668,2.01303.03125,4.06512-.21875,6.0547-.56381,2.31901-.40755,3.62631-2.06771,3.53256-4.3086-.08593-2.11459-1.65235-3.35287-3.71225-3.72918-1.05729-.1875-2.16146-.13282-2.33464-.14063-1.86459,0-2.82813-.10156-3.76043.01562-3.36068.40755-1.80208,3.10157-2.01303,4.80991Z"/>
  </g>
</svg>