<svg xmlns="http://www.w3.org/2000/svg" fill="none" viewBox="0 0 2132 862"><g clip-path="url(#a)"><path stroke="#7f7f7f" stroke-opacity=".415" d="M50 612a200 200 0 0 1 141.421 58.579A200 200 0 0 1 250 812" style="stroke:#7f7f7f;stroke:color(display-p3 .498 .498 .498);stroke-opacity:.415"/><path stroke="#7f7f7f" stroke-opacity=".415" stroke-width=".5" d="M246 812h8M239.32 761.27l7.73-2.07M219.74 714l6.93-4M188.59 673.41l5.66-5.66M148 642.26l4-6.93M100.73 622.68l2.07-7.73M50 616v-8" style="stroke:#7f7f7f;stroke:color(display-p3 .498 .498 .498);stroke-opacity:.415"/><path stroke="#7f7f7f" d="M50 50v762" style="stroke:#7f7f7f;stroke:color(display-p3 .498 .498 .498);stroke-opacity:1"/><path stroke="#7f7f7f" stroke-opacity=".415" stroke-width=".5" d="M75.4 50v762M100.8 50v762M126.2 50v762M151.6 50v762" style="stroke:#7f7f7f;stroke:color(display-p3 .498 .498 .498);stroke-opacity:.415"/><path stroke="#7f7f7f" stroke-opacity=".623" stroke-width=".75" d="M177 50v762" style="stroke:#7f7f7f;stroke:color(display-p3 .498 .498 .498);stroke-opacity:.6225"/><path stroke="#7f7f7f" stroke-opacity=".415" stroke-width=".5" d="M202.4 50v762M227.8 50v762M253.2 50v762M278.6 50v762" style="stroke:#7f7f7f;stroke:color(display-p3 .498 .498 .498);stroke-opacity:.415"/><path stroke="#7f7f7f" d="M304 50v762" style="stroke:#7f7f7f;stroke:color(display-p3 .498 .498 .498);stroke-opacity:1"/><path stroke="#7f7f7f" stroke-opacity=".415" stroke-width=".5" d="M329.4 50v762M354.8 50v762M380.2 50v762M405.6 50v762" style="stroke:#7f7f7f;stroke:color(display-p3 .498 .498 .498);stroke-opacity:.415"/><path stroke="#7f7f7f" stroke-opacity=".623" stroke-width=".75" d="M431 50v762" style="stroke:#7f7f7f;stroke:color(display-p3 .498 .498 .498);stroke-opacity:.6225"/><path stroke="#7f7f7f" stroke-opacity=".415" stroke-width=".5" d="M456.4 50v762M481.8 50v762M507.2 50v762M532.6 50v762" style="stroke:#7f7f7f;stroke:color(display-p3 .498 .498 .498);stroke-opacity:.415"/><path stroke="#7f7f7f" d="M558 50v762" style="stroke:#7f7f7f;stroke:color(display-p3 .498 .498 .498);stroke-opacity:1"/><path stroke="#7f7f7f" stroke-opacity=".415" stroke-width=".5" d="M583.4 50v762M608.8 50v762M634.2 50v762M659.6 50v762" style="stroke:#7f7f7f;stroke:color(display-p3 .498 .498 .498);stroke-opacity:.415"/><path stroke="#7f7f7f" stroke-opacity=".623" stroke-width=".75" d="M685 50v762" style="stroke:#7f7f7f;stroke:color(display-p3 .498 .498 .498);stroke-opacity:.6225"/><path stroke="#7f7f7f" stroke-opacity=".415" stroke-width=".5" d="M710.4 50v762M735.8 50v762M761.2 50v762M786.6 50v762" style="stroke:#7f7f7f;stroke:color(display-p3 .498 .498 .498);stroke-opacity:.415"/><path stroke="#7f7f7f" d="M812 50v762" style="stroke:#7f7f7f;stroke:color(display-p3 .498 .498 .498);stroke-opacity:1"/><path stroke="#7f7f7f" stroke-opacity=".415" stroke-width=".5" d="M837.4 50v762M862.8 50v762M888.2 50v762M913.6 50v762" style="stroke:#7f7f7f;stroke:color(display-p3 .498 .498 .498);stroke-opacity:.415"/><path stroke="#7f7f7f" stroke-opacity=".623" stroke-width=".75" d="M939 50v762" style="stroke:#7f7f7f;stroke:color(display-p3 .498 .498 .498);stroke-opacity:.6225"/><path stroke="#7f7f7f" stroke-opacity=".415" stroke-width=".5" d="M964.4 50v762M989.8 50v762M1015.2 50v762M1040.6 50v762" style="stroke:#7f7f7f;stroke:color(display-p3 .498 .498 .498);stroke-opacity:.415"/><path stroke="#7f7f7f" d="M1066 50v762" style="stroke:#7f7f7f;stroke:color(display-p3 .498 .498 .498);stroke-opacity:1"/><path stroke="#7f7f7f" stroke-opacity=".415" stroke-width=".5" d="M1091.4 50v762M1116.8 50v762M1142.2 50v762M1167.6 50v762" style="stroke:#7f7f7f;stroke:color(display-p3 .498 .498 .498);stroke-opacity:.415"/><path stroke="#7f7f7f" stroke-opacity=".623" stroke-width=".75" d="M1193 50v762" style="stroke:#7f7f7f;stroke:color(display-p3 .498 .498 .498);stroke-opacity:.6225"/><path stroke="#7f7f7f" stroke-opacity=".415" stroke-width=".5" d="M1218.4 50v762M1243.8 50v762M1269.2 50v762M1294.6 50v762" style="stroke:#7f7f7f;stroke:color(display-p3 .498 .498 .498);stroke-opacity:.415"/><path stroke="#7f7f7f" d="M1320 50v762" style="stroke:#7f7f7f;stroke:color(display-p3 .498 .498 .498);stroke-opacity:1"/><path stroke="#7f7f7f" stroke-opacity=".415" stroke-width=".5" d="M1345.4 50v762M1370.8 50v762M1396.2 50v762M1421.6 50v762" style="stroke:#7f7f7f;stroke:color(display-p3 .498 .498 .498);stroke-opacity:.415"/><path stroke="#7f7f7f" stroke-opacity=".623" stroke-width=".75" d="M1447 50v762" style="stroke:#7f7f7f;stroke:color(display-p3 .498 .498 .498);stroke-opacity:.6225"/><path stroke="#7f7f7f" stroke-opacity=".415" stroke-width=".5" d="M1472.4 50v762M1497.8 50v762M1523.2 50v762M1548.6 50v762" style="stroke:#7f7f7f;stroke:color(display-p3 .498 .498 .498);stroke-opacity:.415"/><path stroke="#7f7f7f" d="M1574 50v762" style="stroke:#7f7f7f;stroke:color(display-p3 .498 .498 .498);stroke-opacity:1"/><path stroke="#7f7f7f" stroke-opacity=".415" stroke-width=".5" d="M1599.4 50v762M1624.8 50v762M1650.2 50v762M1675.6 50v762" style="stroke:#7f7f7f;stroke:color(display-p3 .498 .498 .498);stroke-opacity:.415"/><path stroke="#7f7f7f" stroke-opacity=".623" stroke-width=".75" d="M1701 50v762" style="stroke:#7f7f7f;stroke:color(display-p3 .498 .498 .498);stroke-opacity:.6225"/><path stroke="#7f7f7f" stroke-opacity=".415" stroke-width=".5" d="M1726.4 50v762M1751.8 50v762M1777.2 50v762M1802.6 50v762" style="stroke:#7f7f7f;stroke:color(display-p3 .498 .498 .498);stroke-opacity:.415"/><path stroke="#7f7f7f" d="M1828 50v762" style="stroke:#7f7f7f;stroke:color(display-p3 .498 .498 .498);stroke-opacity:1"/><path stroke="#7f7f7f" stroke-opacity=".415" stroke-width=".5" d="M1853.4 50v762M1878.8 50v762M1904.2 50v762M1929.6 50v762" style="stroke:#7f7f7f;stroke:color(display-p3 .498 .498 .498);stroke-opacity:.415"/><path stroke="#7f7f7f" stroke-opacity=".623" stroke-width=".75" d="M1955 50v762" style="stroke:#7f7f7f;stroke:color(display-p3 .498 .498 .498);stroke-opacity:.6225"/><path stroke="#7f7f7f" stroke-opacity=".415" stroke-width=".5" d="M1980.4 50v762M2005.8 50v762M2031.2 50v762M2056.6 50v762" style="stroke:#7f7f7f;stroke:color(display-p3 .498 .498 .498);stroke-opacity:.415"/><path stroke="#7f7f7f" d="M2082 50v762M50 50h2032" style="stroke:#7f7f7f;stroke:color(display-p3 .498 .498 .498);stroke-opacity:1"/><path stroke="#7f7f7f" stroke-opacity=".415" stroke-width=".5" d="M50 75.4h2032M50 100.8h2032M50 126.2h2032M50 151.6h2032" style="stroke:#7f7f7f;stroke:color(display-p3 .498 .498 .498);stroke-opacity:.415"/><path stroke="#7f7f7f" stroke-opacity=".623" stroke-width=".75" d="M50 177h2032" style="stroke:#7f7f7f;stroke:color(display-p3 .498 .498 .498);stroke-opacity:.6225"/><path stroke="#7f7f7f" stroke-opacity=".415" stroke-width=".5" d="M50 202.4h2032M50 227.8h2032M50 253.2h2032M50 278.6h2032" style="stroke:#7f7f7f;stroke:color(display-p3 .498 .498 .498);stroke-opacity:.415"/><path stroke="#7f7f7f" d="M50 304h2032" style="stroke:#7f7f7f;stroke:color(display-p3 .498 .498 .498);stroke-opacity:1"/><path stroke="#7f7f7f" stroke-opacity=".415" stroke-width=".5" d="M50 329.4h2032M50 354.8h2032M50 380.2h2032M50 405.6h2032" style="stroke:#7f7f7f;stroke:color(display-p3 .498 .498 .498);stroke-opacity:.415"/><path stroke="#7f7f7f" stroke-opacity=".623" stroke-width=".75" d="M50 431h2032" style="stroke:#7f7f7f;stroke:color(display-p3 .498 .498 .498);stroke-opacity:.6225"/><path stroke="#7f7f7f" stroke-opacity=".415" stroke-width=".5" d="M50 456.4h2032M50 481.8h2032M50 507.2h2032M50 532.6h2032" style="stroke:#7f7f7f;stroke:color(display-p3 .498 .498 .498);stroke-opacity:.415"/><path stroke="#7f7f7f" d="M50 558h2032" style="stroke:#7f7f7f;stroke:color(display-p3 .498 .498 .498);stroke-opacity:1"/><path stroke="#7f7f7f" stroke-opacity=".415" stroke-width=".5" d="M50 583.4h2032M50 608.8h2032M50 634.2h2032M50 659.6h2032" style="stroke:#7f7f7f;stroke:color(display-p3 .498 .498 .498);stroke-opacity:.415"/><path stroke="#7f7f7f" stroke-opacity=".623" stroke-width=".75" d="M50 685h2032" style="stroke:#7f7f7f;stroke:color(display-p3 .498 .498 .498);stroke-opacity:.6225"/><path stroke="#7f7f7f" stroke-opacity=".415" stroke-width=".5" d="M50 710.4h2032M50 735.8h2032M50 761.2h2032M50 786.6h2032" style="stroke:#7f7f7f;stroke:color(display-p3 .498 .498 .498);stroke-opacity:.415"/><path stroke="#7f7f7f" d="M50 812h2032" style="stroke:#7f7f7f;stroke:color(display-p3 .498 .498 .498);stroke-opacity:1"/><path stroke="#7f7f7f" stroke-width=".5" d="M50 30v20M75.4 30v10M100.8 30v10M126.2 30v10M151.6 30v10M177 30v15M202.4 30v10M227.8 30v10M253.2 30v10M278.6 30v10M304 30v20M329.4 30v10M354.8 30v10M380.2 30v10M405.6 30v10M431 30v15M456.4 30v10M481.8 30v10M507.2 30v10M532.6 30v10M558 30v20M583.4 30v10M608.8 30v10M634.2 30v10M659.6 30v10M685 30v15M710.4 30v10M735.8 30v10M761.2 30v10M786.6 30v10M812 30v20M837.4 30v10M862.8 30v10M888.2 30v10M913.6 30v10M939 30v15M964.4 30v10M989.8 30v10M1015.2 30v10M1040.6 30v10M1066 30v20M1091.4 30v10M1116.8 30v10M1142.2 30v10M1167.6 30v10M1193 30v15M1218.4 30v10M1243.8 30v10M1269.2 30v10M1294.6 30v10M1320 30v20M1345.4 30v10M1370.8 30v10M1396.2 30v10M1421.6 30v10M1447 30v15M1472.4 30v10M1497.8 30v10M1523.2 30v10M1548.6 30v10M1574 30v20M1599.4 30v10M1624.8 30v10M1650.2 30v10M1675.6 30v10M1701 30v15M1726.4 30v10M1751.8 30v10M1777.2 30v10M1802.6 30v10M1828 30v20M1853.4 30v10M1878.8 30v10M1904.2 30v10M1929.6 30v10M1955 30v15M1980.4 30v10M2005.8 30v10M2031.2 30v10M2056.6 30v10M2082 30v20M30 50h20M30 75.4h10M30 100.8h10M30 126.2h10M30 151.6h10M30 177h15M30 202.4h10M30 227.8h10M30 253.2h10M30 278.6h10M30 304h20M30 329.4h10M30 354.8h10M30 380.2h10M30 405.6h10M30 431h15M30 456.4h10M30 481.8h10M30 507.2h10M30 532.6h10M30 558h20M30 583.4h10M30 608.8h10M30 634.2h10M30 659.6h10M30 685h15M30 710.4h10M30 735.8h10M30 761.2h10M30 786.6h10M30 812h20M2082 50h20M2092 75.4h10M2092 100.8h10M2092 126.2h10M2092 151.6h10M2087 177h15M2092 202.4h10M2092 227.8h10M2092 253.2h10M2092 278.6h10M2082 304h20M2092 329.4h10M2092 354.8h10M2092 380.2h10M2092 405.6h10M2087 431h15M2092 456.4h10M2092 481.8h10M2092 507.2h10M2092 532.6h10M2082 558h20M2092 583.4h10M2092 608.8h10M2092 634.2h10M2092 659.6h10M2087 685h15M2092 710.4h10M2092 735.8h10M2092 761.2h10M2092 786.6h10M2082 812h20M50 812v20M75.4 822v10M100.8 822v10M126.2 822v10M151.6 822v10M177 817v15M202.4 822v10M227.8 822v10M253.2 822v10M278.6 822v10M304 812v20M329.4 822v10M354.8 822v10M380.2 822v10M405.6 822v10M431 817v15M456.4 822v10M481.8 822v10M507.2 822v10M532.6 822v10M558 812v20M583.4 822v10M608.8 822v10M634.2 822v10M659.6 822v10M685 817v15M710.4 822v10M735.8 822v10M761.2 822v10M786.6 822v10M812 812v20M837.4 822v10M862.8 822v10M888.2 822v10M913.6 822v10M939 817v15M964.4 822v10M989.8 822v10M1015.2 822v10M1040.6 822v10M1066 812v20M1091.4 822v10M1116.8 822v10M1142.2 822v10M1167.6 822v10M1193 817v15M1218.4 822v10M1243.8 822v10M1269.2 822v10M1294.6 822v10M1320 812v20M1345.4 822v10M1370.8 822v10M1396.2 822v10M1421.6 822v10M1447 817v15M1472.4 822v10M1497.8 822v10M1523.2 822v10M1548.6 822v10M1574 812v20M1599.4 822v10M1624.8 822v10M1650.2 822v10M1675.6 822v10M1701 817v15M1726.4 822v10M1751.8 822v10M1777.2 822v10M1802.6 822v10M1828 812v20M1853.4 822v10M1878.8 822v10M1904.2 822v10M1929.6 822v10M1955 817v15M1980.4 822v10M2005.8 822v10M2031.2 822v10M2056.6 822v10M2082 812v20" style="stroke:#7f7f7f;stroke:color(display-p3 .498 .498 .498);stroke-opacity:1"/><path fill="#7f7f7f" d="M50.495 25.16q-.86 0-1.49-.45t-.98-1.28q-.34-.83-.34-1.97t.34-1.97q.35-.84.98-1.29.63-.46 1.49-.46.87 0 1.5.46.63.45.97 1.28.35.83.35 1.98 0 1.14-.35 1.97-.34.83-.97 1.28t-1.5.45m0-.84q.92 0 1.42-.74.5-.75.5-2.12 0-.92-.23-1.56-.22-.65-.65-.98-.42-.34-1.04-.34-.61 0-1.04.34-.42.33-.65.98-.22.64-.22 1.56 0 1.37.5 2.12.5.74 1.41.74M171.695 25q0-.6.184-1.08.192-.488.664-.928.48-.44 1.328-.888.392-.209.632-.384a1.2 1.2 0 0 0 .352-.376 1 1 0 0 0 .112-.488 1 1 0 0 0-.128-.512.88.88 0 0 0-.384-.352 1.35 1.35 0 0 0-.624-.128q-.6 0-.952.312-.344.312-.432.888l-.72-.048q.096-.832.64-1.328.544-.495 1.464-.496.584 0 1 .208t.632.584q.224.367.224.856 0 .432-.144.752a1.64 1.64 0 0 1-.488.584 6 6 0 0 1-.928.584q-.768.408-1.168.824-.392.415-.416.744h3.144V25zm4.825 0v-.904h.904V25zm3.753.128q-.6 0-1.04-.2a1.7 1.7 0 0 1-.688-.56 1.7 1.7 0 0 1-.288-.832l.72-.048q.065.48.408.728.353.24.888.24.6 0 .952-.336.352-.344.352-.944 0-.4-.16-.688a1.05 1.05 0 0 0-.448-.456 1.5 1.5 0 0 0-.712-.16 1.5 1.5 0 0 0-.712.168.98.98 0 0 0-.456.472h-.736l.376-3.192h3.184v.672h-2.552l-.256 2.096-.128-.128q.129-.247.336-.408.216-.168.488-.248a2 2 0 0 1 .584-.088q.568 0 1 .256.432.247.672.696.24.44.24 1.008t-.256 1.016a1.8 1.8 0 0 1-.712.688 2.2 2.2 0 0 1-1.056.248M304.49 25.16q-.75 0-1.3-.25-.54-.25-.86-.7a2.1 2.1 0 0 1-.36-1.04l.9-.06q.08.6.51.91.44.3 1.11.3.75 0 1.19-.42.44-.43.44-1.18 0-.5-.2-.86a1.32 1.32 0 0 0-.56-.57q-.37-.2-.89-.2-.49 0-.89.21t-.57.59h-.92l.47-3.99h3.98v.84h-3.19l-.32 2.62-.16-.16q.16-.31.42-.51.27-.21.61-.31.35-.11.73-.11.71 0 1.25.32.54.31.84.87.3.55.3 1.26t-.32 1.27q-.32.55-.89.86t-1.32.31M427.916 25q0-.88.24-1.752.24-.88.688-1.704a9 9 0 0 1 1.088-1.552h-3.28v-.672h4.032v.624a10.6 10.6 0 0 0-1.176 1.616 6.5 6.5 0 0 0-.672 1.64 7.2 7.2 0 0 0-.216 1.8zm2.327 0v-.904h.904V25zm3.753.128q-.6 0-1.04-.2a1.7 1.7 0 0 1-.688-.56 1.7 1.7 0 0 1-.288-.832l.72-.048q.065.48.408.728.353.24.888.24.6 0 .952-.336.352-.344.352-.944 0-.4-.16-.688a1.06 1.06 0 0 0-.448-.456 1.5 1.5 0 0 0-.712-.16q-.392 0-.712.168a.98.98 0 0 0-.456.472h-.736l.376-3.192h3.184v.672h-2.552l-.256 2.096-.128-.128q.127-.247.336-.408.216-.168.488-.248.28-.088.584-.088.568 0 1 .256.432.247.672.696.24.44.24 1.008t-.256 1.016a1.8 1.8 0 0 1-.712.688 2.2 2.2 0 0 1-1.056.248M555.194 25v-5.26h-1.48V19h.6q.39 0 .62-.1a.6.6 0 0 0 .34-.34q.1-.24.1-.66h.68V25zm5.171.16q-.86 0-1.49-.45t-.98-1.28q-.34-.83-.34-1.97t.34-1.97q.35-.84.98-1.29.63-.46 1.49-.46.87 0 1.5.46.63.45.97 1.28.35.83.35 1.98 0 1.14-.35 1.97-.34.83-.97 1.28t-1.5.45m0-.84q.92 0 1.42-.74.5-.75.5-2.12 0-.92-.23-1.56-.22-.65-.65-.98-.42-.34-1.04-.34-.61 0-1.04.34-.42.33-.65.98-.22.64-.22 1.56 0 1.37.5 2.12.5.74 1.41.74M679.723 25v-4.208h-1.184V20.2h.48q.312 0 .496-.08a.5.5 0 0 0 .272-.272q.08-.192.08-.528h.544V25zm1.968 0q0-.6.184-1.08.192-.488.664-.928.48-.44 1.328-.888.392-.209.632-.384a1.2 1.2 0 0 0 .352-.376 1 1 0 0 0 .112-.488 1 1 0 0 0-.128-.512.88.88 0 0 0-.384-.352 1.35 1.35 0 0 0-.624-.128q-.6 0-.952.312-.344.312-.432.888l-.72-.048q.096-.832.64-1.328.544-.495 1.464-.496.584 0 1 .208t.632.584q.224.367.224.856 0 .432-.144.752a1.64 1.64 0 0 1-.488.584 6 6 0 0 1-.928.584q-.768.408-1.168.824-.392.415-.416.744h3.144V25zm4.825 0v-.904h.904V25zm3.753.128q-.6 0-1.04-.2a1.7 1.7 0 0 1-.688-.56 1.7 1.7 0 0 1-.288-.832l.72-.048q.064.48.408.728.353.24.888.24.6 0 .952-.336.352-.344.352-.944 0-.4-.16-.688a1.05 1.05 0 0 0-.448-.456 1.5 1.5 0 0 0-.712-.16 1.5 1.5 0 0 0-.712.168.98.98 0 0 0-.456.472h-.736l.376-3.192h3.184v.672h-2.552l-.256 2.096-.128-.128q.129-.247.336-.408.216-.168.488-.248a2 2 0 0 1 .584-.088q.568 0 1 .256.432.247.672.696.24.44.24 1.008t-.256 1.016a1.8 1.8 0 0 1-.712.688 2.2 2.2 0 0 1-1.056.248M809.331 25v-5.26h-1.48V19h.6q.39 0 .62-.1a.6.6 0 0 0 .34-.34q.1-.24.1-.66h.68V25zm5.078.16q-.75 0-1.3-.25-.54-.25-.86-.7a2.1 2.1 0 0 1-.36-1.04l.9-.06q.08.6.51.91.44.3 1.11.3.75 0 1.19-.42.44-.43.44-1.18 0-.5-.2-.86a1.32 1.32 0 0 0-.56-.57q-.37-.2-.89-.2-.49 0-.89.21t-.57.59h-.92l.47-3.99h3.98v.84h-3.19l-.32 2.62-.16-.16q.16-.31.42-.51.27-.21.61-.31.35-.11.73-.11.71 0 1.25.32.54.31.84.87.3.55.3 1.26t-.32 1.27q-.32.55-.89.86t-1.32.31M933.961 25v-4.208h-1.184V20.2h.48q.312 0 .496-.08a.49.49 0 0 0 .272-.272q.08-.192.08-.528h.544V25zm2.99 0q0-.88.24-1.752.24-.88.688-1.704a9 9 0 0 1 1.088-1.552h-3.28v-.672h4.032v.624a10.6 10.6 0 0 0-1.176 1.616 6.5 6.5 0 0 0-.672 1.64 7.2 7.2 0 0 0-.216 1.8zm2.327 0v-.904h.904V25zm3.753.128q-.6 0-1.04-.2a1.7 1.7 0 0 1-.688-.56 1.7 1.7 0 0 1-.288-.832l.72-.048q.064.48.408.728.352.24.888.24.6 0 .952-.336.352-.344.352-.944 0-.4-.16-.688a1.06 1.06 0 0 0-.448-.456 1.5 1.5 0 0 0-.712-.16q-.392 0-.712.168a.98.98 0 0 0-.456.472h-.736l.376-3.192h3.184v.672h-2.552l-.256 2.096-.128-.128q.128-.247.336-.408.216-.168.488-.248.28-.088.584-.088.568 0 1 .256.432.247.672.696.24.44.24 1.008t-.256 1.016a1.8 1.8 0 0 1-.712.688 2.2 2.2 0 0 1-1.056.248M1060.74 25c0-.5.07-.95.23-1.35.16-.407.43-.793.83-1.16s.95-.737 1.66-1.11c.32-.173.59-.333.79-.48s.34-.303.44-.47c.09-.167.14-.37.14-.61a1.3 1.3 0 0 0-.16-.64 1.14 1.14 0 0 0-.48-.44q-.315-.16-.78-.16c-.5 0-.9.13-1.19.39q-.435.39-.54 1.11l-.9-.06c.08-.693.34-1.247.8-1.66q.675-.62 1.83-.62c.48 0 .9.087 1.25.26.34.173.61.417.79.73.18.307.28.663.28 1.07q0 .54-.18.94c-.12.26-.33.503-.61.73s-.67.47-1.16.73c-.64.34-1.13.683-1.46 1.03s-.5.657-.52.93h3.93V25zm8.8.16c-.57 0-1.07-.15-1.49-.45s-.75-.727-.98-1.28-.34-1.21-.34-1.97.11-1.417.34-1.97c.23-.56.56-.99.98-1.29.42-.307.92-.46 1.49-.46q.87 0 1.5.46c.42.3.74.727.97 1.28s.35 1.213.35 1.98c0 .76-.12 1.417-.35 1.97s-.55.98-.97 1.28q-.63.45-1.5.45m0-.84c.61 0 1.09-.247 1.42-.74.33-.5.5-1.207.5-2.12 0-.613-.08-1.133-.23-1.56-.15-.433-.36-.76-.65-.98-.28-.227-.63-.34-1.04-.34s-.75.113-1.04.34c-.28.22-.5.547-.65.98-.15.427-.22.947-.22 1.56 0 .913.17 1.62.5 2.12q.495.74 1.41.74M1185.72 25q0-.6.18-1.08c.13-.325.35-.635.67-.928q.48-.44 1.32-.888c.27-.139.48-.267.64-.384s.27-.243.35-.376c.07-.133.11-.296.11-.488a.94.94 0 0 0-.13-.512.85.85 0 0 0-.38-.352 1.4 1.4 0 0 0-.63-.128c-.4 0-.71.104-.95.312-.23.208-.37.504-.43.888l-.72-.048c.06-.555.28-.997.64-1.328.36-.33.85-.496 1.46-.496.39 0 .73.07 1 .208.28.139.49.333.64.584.15.245.22.53.22.856 0 .288-.05.539-.14.752-.1.208-.26.403-.49.584q-.345.272-.93.584-.765.408-1.17.824c-.26.277-.4.525-.41.744h3.14V25zm4.95 0c0-.4.06-.76.19-1.08q.18-.488.66-.928c.32-.293.76-.59 1.33-.888q.39-.209.63-.384c.16-.117.28-.243.35-.376.08-.133.11-.296.11-.488q0-.296-.12-.512a.93.93 0 0 0-.39-.352c-.16-.085-.37-.128-.62-.128-.4 0-.72.104-.95.312s-.38.504-.44.888l-.72-.048c.07-.555.28-.997.64-1.328.37-.33.85-.496 1.47-.496.39 0 .72.07 1 .208.27.139.49.333.63.584.15.245.22.53.22.856 0 .288-.04.539-.14.752-.1.208-.26.403-.49.584q-.33.272-.93.584c-.51.272-.9.547-1.16.824-.27.277-.4.525-.42.744h3.14V25zm4.83 0v-.904h.9V25zm3.75.128c-.4 0-.75-.067-1.04-.2a1.7 1.7 0 0 1-.69-.56c-.16-.24-.26-.517-.29-.832l.72-.048c.05.32.18.563.41.728.24.16.53.24.89.24.4 0 .72-.112.95-.336.24-.23.35-.544.35-.944 0-.267-.05-.496-.16-.688-.1-.197-.25-.35-.44-.456a1.5 1.5 0 0 0-.72-.16c-.26 0-.49.056-.71.168a.98.98 0 0 0-.45.472h-.74l.38-3.192h3.18v.672h-2.55l-.26 2.096-.13-.128c.09-.165.2-.301.34-.408.14-.112.31-.195.49-.248.18-.059.38-.088.58-.088.38 0 .71.085 1 .256.29.165.51.397.67.696q.24.44.24 1.008c0 .379-.08.717-.25 1.016a1.8 1.8 0 0 1-.71.688c-.31.165-.66.248-1.06.248M1314.87 25c0-.5.08-.95.23-1.35.16-.407.44-.793.83-1.16.4-.367.96-.737 1.66-1.11.33-.173.59-.333.79-.48s.35-.303.44-.47c.1-.167.14-.37.14-.61 0-.247-.05-.46-.16-.64q-.15-.28-.48-.44-.3-.16-.78-.16c-.5 0-.89.13-1.19.39q-.42.39-.54 1.11l-.9-.06c.08-.693.35-1.247.8-1.66q.69-.62 1.83-.62c.49 0 .91.087 1.25.26.35.173.61.417.79.73.19.307.28.663.28 1.07q0 .54-.18.94c-.12.26-.32.503-.61.73-.28.227-.66.47-1.16.73-.64.34-1.12.683-1.46 1.03-.32.347-.5.657-.52.93h3.93V25zm8.72.16c-.5 0-.94-.083-1.3-.25s-.65-.4-.86-.7a2.05 2.05 0 0 1-.36-1.04l.9-.06q.075.6.51.91.435.3 1.11.3c.5 0 .89-.14 1.19-.42.29-.287.44-.68.44-1.18 0-.333-.07-.62-.2-.86a1.38 1.38 0 0 0-.56-.57c-.25-.133-.55-.2-.89-.2-.33 0-.63.07-.89.21q-.405.21-.57.59h-.92l.47-3.99h3.98v.84h-3.19l-.32 2.62-.16-.16q.15-.31.42-.51c.18-.14.38-.243.61-.31.23-.073.47-.11.73-.11.47 0 .89.107 1.25.32q.54.31.84.87.3.55.3 1.26c0 .473-.11.897-.32 1.27a2.3 2.3 0 0 1-.89.86q-.57.31-1.32.31M1440.55 25c0-.4.07-.76.19-1.08q.195-.488.66-.928c.32-.293.76-.59 1.33-.888q.39-.209.63-.384c.16-.117.28-.243.35-.376a.93.93 0 0 0 .12-.488c0-.197-.05-.368-.13-.512a.93.93 0 0 0-.39-.352c-.16-.085-.37-.128-.62-.128-.4 0-.72.104-.95.312s-.38.504-.43.888l-.72-.048c.06-.555.27-.997.64-1.328.36-.33.85-.496 1.46-.496.39 0 .72.07 1 .208q.42.208.63.584c.15.245.23.53.23.856q0 .432-.15.752c-.09.208-.26.403-.49.584-.22.181-.53.376-.92.584q-.78.408-1.17.824-.39.415-.42.744h3.15V25zm5.78 0q0-.88.24-1.752a8 8 0 0 1 .69-1.704c.31-.55.67-1.067 1.09-1.552h-3.28v-.672h4.03v.624q-.705.816-1.17 1.616a6.5 6.5 0 0 0-.68 1.64q-.21.84-.21 1.8zm2.33 0v-.904h.9V25zm3.75.128c-.4 0-.74-.067-1.04-.2-.28-.133-.51-.32-.68-.56s-.27-.517-.29-.832l.72-.048c.04.32.18.563.41.728.23.16.53.24.88.24q.6 0 .96-.336c.23-.23.35-.544.35-.944 0-.267-.06-.496-.16-.688a1.04 1.04 0 0 0-.45-.456 1.5 1.5 0 0 0-.71-.16c-.26 0-.5.056-.71.168a.95.95 0 0 0-.46.472h-.74l.38-3.192h3.18v.672h-2.55l-.25 2.096-.13-.128c.08-.165.2-.301.33-.408.15-.112.31-.195.49-.248.19-.059.38-.088.59-.088.37 0 .71.085 1 .256.28.165.51.397.67.696q.24.44.24 1.008c0 .379-.09.717-.26 1.016a1.8 1.8 0 0 1-.71.688c-.3.165-.66.248-1.06.248M1571.13 25.16c-.79 0-1.4-.183-1.82-.55q-.645-.56-.69-1.44l.89-.06c.04.433.2.743.5.93s.67.28 1.12.28c.3 0 .59-.04.85-.12q.39-.13.63-.41.24-.29.24-.77c0-.473-.16-.82-.47-1.04-.32-.22-.73-.33-1.24-.33h-.56v-.84h.56c.42 0 .76-.083 1.04-.25q.42-.25.42-.86 0-.55-.36-.83c-.24-.193-.59-.29-1.06-.29s-.82.09-1.06.27q-.36.27-.42.74l-.9-.06c.06-.533.3-.963.71-1.29.4-.333.96-.5 1.67-.5.48 0 .89.08 1.24.24.34.153.61.373.8.66.18.287.28.627.28 1.02q0 .66-.42 1.07c-.28.267-.68.45-1.22.55v-.18q.87.1 1.38.62t.51 1.3c0 .453-.12.84-.34 1.16s-.53.563-.92.73c-.4.167-.85.25-1.36.25m6.43 0c-.57 0-1.07-.15-1.49-.45s-.75-.727-.98-1.28-.34-1.21-.34-1.97.11-1.417.34-1.97c.23-.56.56-.99.98-1.29.42-.307.92-.46 1.49-.46q.87 0 1.5.46c.42.3.74.727.97 1.28s.35 1.213.35 1.98c0 .76-.12 1.417-.35 1.97s-.55.98-.97 1.28q-.63.45-1.5.45m0-.84c.61 0 1.09-.247 1.42-.74.33-.5.5-1.207.5-2.12 0-.613-.08-1.133-.23-1.56-.15-.433-.36-.76-.65-.98-.28-.227-.63-.34-1.04-.34s-.75.113-1.04.34c-.28.22-.5.547-.65.98-.15.427-.22.947-.22 1.56 0 .913.17 1.62.5 2.12q.495.74 1.41.74M1695.67 25.128c-.63 0-1.11-.147-1.46-.44-.34-.299-.52-.683-.55-1.152l.71-.048c.04.347.17.595.4.744q.36.224.9.224c.25 0 .47-.032.68-.096.21-.07.38-.179.5-.328.13-.155.2-.36.2-.616 0-.379-.13-.656-.38-.832q-.375-.264-.99-.264h-.45v-.672h.45c.33 0 .61-.067.83-.2s.34-.363.34-.688c0-.293-.1-.515-.29-.664-.19-.155-.47-.232-.85-.232-.37 0-.66.072-.85.216a.87.87 0 0 0-.33.592l-.72-.048c.05-.427.24-.77.56-1.032.33-.267.77-.4 1.34-.4q.57 0 .99.192c.28.123.49.299.64.528s.23.501.23.816c0 .352-.12.637-.34.856-.22.213-.54.36-.98.44v-.144q.705.08 1.11.496c.27.277.41.624.41 1.04 0 .363-.09.672-.28.928-.17.256-.42.45-.73.584a2.8 2.8 0 0 1-1.09.2m2.98-.128q0-.6.18-1.08c.13-.325.35-.635.67-.928q.48-.44 1.32-.888c.27-.139.48-.267.64-.384s.27-.243.35-.376c.07-.133.11-.296.11-.488a.94.94 0 0 0-.13-.512.85.85 0 0 0-.38-.352 1.4 1.4 0 0 0-.63-.128c-.4 0-.71.104-.95.312-.23.208-.37.504-.43.888l-.72-.048c.06-.555.28-.997.64-1.328.36-.33.85-.496 1.46-.496.39 0 .73.07 1 .208.28.139.49.333.64.584.15.245.22.53.22.856 0 .288-.05.539-.14.752-.1.208-.26.403-.49.584q-.345.272-.93.584-.765.408-1.17.824c-.26.277-.4.525-.41.744h3.14V25zm4.82 0v-.904h.91V25zm3.76.128c-.4 0-.75-.067-1.04-.2a1.7 1.7 0 0 1-.69-.56 1.7 1.7 0 0 1-.29-.832l.72-.048c.04.32.18.563.41.728.23.16.53.24.89.24.4 0 .71-.112.95-.336.23-.23.35-.544.35-.944 0-.267-.05-.496-.16-.688a1.04 1.04 0 0 0-.45-.456c-.19-.107-.43-.16-.71-.16-.26 0-.5.056-.71.168a1 1 0 0 0-.46.472h-.73l.37-3.192h3.19v.672h-2.56l-.25 2.096-.13-.128c.09-.165.2-.301.34-.408q.21-.168.48-.248c.19-.059.39-.088.59-.088.38 0 .71.085 1 .256.29.165.51.397.67.696q.24.44.24 1.008c0 .379-.08.717-.26 1.016-.17.293-.4.523-.71.688q-.45.248-1.05.248M1825.31 25.16c-.78 0-1.39-.183-1.82-.55q-.63-.56-.69-1.44l.89-.06c.04.433.21.743.5.93.3.187.68.28 1.12.28.31 0 .59-.04.85-.12q.39-.13.63-.41.24-.29.24-.77c0-.473-.15-.82-.47-1.04-.31-.22-.72-.33-1.24-.33h-.56v-.84h.56c.42 0 .77-.083 1.04-.25q.42-.25.42-.86 0-.55-.36-.83c-.23-.193-.58-.29-1.06-.29-.46 0-.82.09-1.06.27q-.345.27-.42.74l-.9-.06c.07-.533.31-.963.71-1.29.41-.333.97-.5 1.67-.5.48 0 .9.08 1.24.24.35.153.62.373.8.66.19.287.28.627.28 1.02q0 .66-.42 1.07c-.27.267-.68.45-1.22.55v-.18q.87.1 1.38.62t.51 1.3c0 .453-.11.84-.34 1.16-.22.32-.52.563-.92.73-.39.167-.84.25-1.36.25m6.25 0c-.5 0-.94-.083-1.3-.25s-.65-.4-.86-.7a2.05 2.05 0 0 1-.36-1.04l.9-.06q.075.6.51.91.435.3 1.11.3c.5 0 .89-.14 1.19-.42.29-.287.44-.68.44-1.18 0-.333-.07-.62-.2-.86a1.38 1.38 0 0 0-.56-.57c-.25-.133-.55-.2-.89-.2-.33 0-.63.07-.89.21q-.405.21-.57.59h-.92l.47-3.99h3.98v.84h-3.19l-.32 2.62-.16-.16q.15-.31.42-.51c.18-.14.38-.243.61-.31.23-.073.47-.11.73-.11.47 0 .89.107 1.25.32q.54.31.84.87.3.55.3 1.26c0 .473-.11.897-.32 1.27a2.3 2.3 0 0 1-.89.86q-.57.31-1.32.31M1950.53 25.128c-.63 0-1.12-.147-1.46-.44a1.57 1.57 0 0 1-.55-1.152l.71-.048c.03.347.16.595.4.744q.36.224.9.224c.24 0 .47-.032.68-.096.2-.07.37-.179.5-.328.13-.155.19-.36.19-.616 0-.379-.12-.656-.37-.832-.26-.176-.59-.264-1-.264h-.44v-.672h.44q.51 0 .84-.2t.33-.688c0-.293-.09-.515-.29-.664-.18-.155-.47-.232-.84-.232-.38 0-.66.072-.85.216a.88.88 0 0 0-.34.592l-.72-.048q.075-.64.57-1.032c.32-.267.77-.4 1.34-.4q.57 0 .99.192c.27.123.49.299.64.528s.22.501.22.816q0 .528-.33.856c-.22.213-.55.36-.98.44v-.144c.46.053.83.219 1.1.496.28.277.41.624.41 1.04q0 .544-.27.928c-.18.256-.42.45-.74.584q-.465.2-1.08.2m3.76-.128q0-.88.24-1.752a8 8 0 0 1 .69-1.704c.3-.55.67-1.067 1.09-1.552h-3.28v-.672h4.03v.624c-.48.544-.87 1.083-1.18 1.616-.3.528-.52 1.075-.67 1.64q-.21.84-.21 1.8zm2.33 0v-.904h.9V25zm3.75.128c-.4 0-.75-.067-1.04-.2a1.7 1.7 0 0 1-.69-.56 1.67 1.67 0 0 1-.28-.832l.72-.048c.04.32.17.563.4.728.24.16.53.24.89.24.4 0 .72-.112.95-.336q.36-.344.36-.944c0-.267-.06-.496-.16-.688q-.165-.296-.45-.456c-.2-.107-.44-.16-.71-.16s-.5.056-.72.168a.98.98 0 0 0-.45.472h-.74l.38-3.192h3.18v.672h-2.55l-.26 2.096-.12-.128q.12-.247.33-.408c.15-.112.31-.195.49-.248.19-.059.38-.088.58-.088.38 0 .72.085 1 .256.29.165.52.397.68.696.16.293.23.63.23 1.008 0 .379-.08.717-.25 1.016a1.8 1.8 0 0 1-.71.688c-.31.165-.66.248-1.06.248M2080.02 25v-1.54h-3.61v-.78l3.55-4.78h.92v4.72h.88v.84h-.88V25zm-2.57-2.38h2.57v-3.4zm8.12 2.54c-.57 0-1.07-.15-1.49-.45s-.75-.727-.98-1.28-.34-1.21-.34-1.97.11-1.417.34-1.97c.23-.56.56-.99.98-1.29.42-.307.92-.46 1.49-.46q.87 0 1.5.46c.42.3.74.727.97 1.28s.35 1.213.35 1.98c0 .76-.12 1.417-.35 1.97s-.55.98-.97 1.28q-.63.45-1.5.45m0-.84c.61 0 1.09-.247 1.42-.74.33-.5.5-1.207.5-2.12 0-.613-.08-1.133-.23-1.56-.15-.433-.36-.76-.65-.98-.28-.227-.63-.34-1.04-.34s-.75.113-1.04.34c-.28.22-.5.547-.65.98-.15.427-.22.947-.22 1.56 0 .913.17 1.62.5 2.12q.495.74 1.41.74M20.331 53v-5.26h-1.48V47h.6q.39 0 .62-.1a.6.6 0 0 0 .34-.34q.1-.24.1-.66h.68V53zm5.078.16q-.75 0-1.3-.25-.54-.25-.86-.7a2.1 2.1 0 0 1-.36-1.04l.9-.06q.08.6.51.91.44.3 1.11.3.75 0 1.19-.42.44-.43.44-1.18 0-.5-.2-.86a1.32 1.32 0 0 0-.56-.57q-.37-.2-.89-.2-.49 0-.89.21t-.57.59h-.92l.47-3.99h3.98v.84h-3.19l-.32 2.62-.16-.16a1.5 1.5 0 0 1 .42-.51q.27-.21.61-.31a2.4 2.4 0 0 1 .73-.11q.71 0 1.25.32.54.31.84.87.3.55.3 1.26t-.32 1.27q-.32.55-.89.86t-1.32.31M17.723 180v-4.208h-1.184v-.592h.48q.312 0 .496-.08a.49.49 0 0 0 .272-.272q.08-.192.08-.528h.544V180zm1.968 0a3 3 0 0 1 .184-1.08q.193-.488.664-.928.48-.44 1.328-.888.392-.209.632-.384t.352-.376a1 1 0 0 0 .112-.488 1 1 0 0 0-.128-.512.9.9 0 0 0-.384-.352 1.36 1.36 0 0 0-.624-.128q-.6 0-.952.312-.344.312-.432.888l-.72-.048q.096-.832.64-1.328t1.464-.496q.585 0 1 .208t.632.584q.224.368.224.856 0 .432-.144.752a1.6 1.6 0 0 1-.488.584 6 6 0 0 1-.928.584q-.768.408-1.168.824-.392.416-.416.744h3.144V180zm4.825 0v-.904h.904V180zm3.753.128a2.5 2.5 0 0 1-1.04-.2 1.7 1.7 0 0 1-.688-.56 1.7 1.7 0 0 1-.288-.832l.72-.048q.065.48.408.728.352.24.888.24.6 0 .952-.336.352-.344.352-.944 0-.4-.16-.688a1.06 1.06 0 0 0-.448-.456 1.5 1.5 0 0 0-.712-.16q-.39 0-.712.168a.98.98 0 0 0-.456.472h-.736l.376-3.192h3.184v.672h-2.552l-.256 2.096-.128-.128a1.2 1.2 0 0 1 .336-.408 1.5 1.5 0 0 1 .488-.248q.28-.088.584-.088.569 0 1 .256.432.248.672.696.24.44.24 1.008t-.256 1.016q-.256.44-.712.688a2.2 2.2 0 0 1-1.056.248M20.195 307v-5.26h-1.48V301h.6q.39 0 .62-.1a.6.6 0 0 0 .34-.34q.1-.24.1-.66h.68v7.1zm5.17.16q-.86 0-1.49-.45t-.98-1.28q-.34-.83-.34-1.97t.34-1.97q.35-.84.98-1.29.63-.46 1.49-.46.87 0 1.5.46.63.45.97 1.28.35.83.35 1.98 0 1.14-.35 1.97-.34.83-.97 1.28t-1.5.45m0-.84q.92 0 1.42-.74.5-.75.5-2.12 0-.92-.23-1.56-.22-.65-.65-.98-.42-.34-1.04-.34-.61 0-1.04.34-.42.33-.65.98-.22.64-.22 1.56 0 1.37.5 2.12.5.74 1.41.74M19.916 434q0-.88.24-1.752.24-.88.688-1.704a9 9 0 0 1 1.088-1.552h-3.28v-.672h4.032v.624a10.5 10.5 0 0 0-1.176 1.616 6.5 6.5 0 0 0-.672 1.64 7.2 7.2 0 0 0-.216 1.8zm2.327 0v-.904h.904V434zm3.753.128a2.5 2.5 0 0 1-1.04-.2 1.7 1.7 0 0 1-.688-.56 1.7 1.7 0 0 1-.288-.832l.72-.048q.064.48.408.728.352.24.888.24.6 0 .952-.336.352-.344.352-.944 0-.4-.16-.688a1.06 1.06 0 0 0-.448-.456 1.5 1.5 0 0 0-.712-.16q-.392 0-.712.168a.98.98 0 0 0-.456.472h-.736l.376-3.192h3.184v.672h-2.552l-.256 2.096-.128-.128q.128-.248.336-.408a1.5 1.5 0 0 1 .488-.248q.28-.088.584-.088.568 0 1 .256.432.248.672.696.24.44.24 1.008t-.256 1.016q-.256.44-.712.688a2.2 2.2 0 0 1-1.056.248M23.49 561.16q-.75 0-1.3-.25a2.13 2.13 0 0 1-.86-.7 2.1 2.1 0 0 1-.36-1.04l.9-.06q.08.6.51.91.441.3 1.11.3.75 0 1.19-.42.44-.43.44-1.18 0-.5-.2-.86a1.3 1.3 0 0 0-.56-.57q-.37-.2-.89-.2-.49 0-.89.21-.399.21-.57.59h-.92l.47-3.99h3.98v.84h-3.19l-.32 2.62-.16-.16q.16-.31.42-.51.27-.21.61-.31.35-.11.73-.11.71 0 1.25.32.54.31.84.87.3.55.3 1.26t-.32 1.27q-.32.55-.89.86t-1.32.31M17.695 688a3 3 0 0 1 .184-1.08q.193-.488.664-.928.48-.44 1.328-.888.392-.209.632-.384t.352-.376a1 1 0 0 0 .112-.488 1 1 0 0 0-.128-.512.9.9 0 0 0-.384-.352 1.36 1.36 0 0 0-.624-.128q-.6 0-.952.312-.344.312-.432.888l-.72-.048q.096-.832.64-1.328t1.464-.496q.585 0 1 .208t.632.584q.224.368.224.856 0 .432-.144.752a1.6 1.6 0 0 1-.488.584 6 6 0 0 1-.928.584q-.768.408-1.168.824-.392.416-.416.744h3.144V688zm4.825 0v-.904h.904V688zm3.753.128a2.5 2.5 0 0 1-1.04-.2 1.7 1.7 0 0 1-.688-.56 1.7 1.7 0 0 1-.288-.832l.72-.048q.064.48.408.728.352.24.888.24.6 0 .952-.336.352-.344.352-.944 0-.4-.16-.688a1.06 1.06 0 0 0-.448-.456 1.5 1.5 0 0 0-.712-.16q-.391 0-.712.168a.98.98 0 0 0-.456.472h-.736l.376-3.192h3.184v.672h-2.552l-.256 2.096-.128-.128a1.2 1.2 0 0 1 .336-.408 1.5 1.5 0 0 1 .488-.248q.28-.088.584-.088.568 0 1 .256.432.247.672.696.24.44.24 1.008t-.256 1.016q-.255.44-.712.688a2.2 2.2 0 0 1-1.056.248M23.495 815.16q-.86 0-1.49-.45t-.98-1.28q-.34-.83-.34-1.97t.34-1.97q.35-.84.98-1.29.63-.46 1.49-.46.87 0 1.5.46.63.45.97 1.28.35.83.35 1.98 0 1.14-.35 1.97-.34.83-.97 1.28t-1.5.45m0-.84q.92 0 1.42-.74.5-.75.5-2.12 0-.92-.23-1.56-.22-.65-.65-.98-.42-.34-1.04-.34-.61 0-1.04.34-.42.33-.65.98-.22.64-.22 1.56 0 1.37.5 2.12.5.74 1.41.74M2106.33 53v-5.26h-1.48V47h.6c.26 0 .47-.033.62-.1.16-.067.27-.18.34-.34s.1-.38.1-.66h.68V53zm5.08.16c-.5 0-.93-.083-1.3-.25-.36-.167-.65-.4-.86-.7a2.05 2.05 0 0 1-.36-1.04l.9-.06q.075.6.51.91.435.3 1.11.3c.5 0 .9-.14 1.19-.42.29-.287.44-.68.44-1.18 0-.333-.07-.62-.2-.86a1.32 1.32 0 0 0-.56-.57c-.25-.133-.54-.2-.89-.2-.33 0-.62.07-.89.21q-.405.21-.57.59h-.92l.47-3.99h3.98v.84h-3.19l-.32 2.62-.16-.16q.165-.31.42-.51c.18-.14.38-.243.61-.31.23-.073.48-.11.73-.11.47 0 .89.107 1.25.32q.54.31.84.87.3.55.3 1.26c0 .473-.11.897-.32 1.27-.21.367-.51.653-.89.86q-.57.31-1.32.31M2103.72 180v-4.208h-1.18v-.592h.48c.21 0 .37-.027.49-.08a.51.51 0 0 0 .28-.272c.05-.128.08-.304.08-.528h.54V180zm1.97 0q0-.6.18-1.08c.13-.325.35-.635.67-.928s.76-.589 1.33-.888q.39-.209.63-.384c.16-.117.28-.243.35-.376.08-.133.11-.296.11-.488a.95.95 0 0 0-.13-.512.85.85 0 0 0-.38-.352c-.16-.085-.37-.128-.62-.128q-.6 0-.96.312c-.22.208-.37.504-.43.888l-.72-.048c.07-.555.28-.997.64-1.328.37-.331.85-.496 1.47-.496.39 0 .72.069 1 .208q.405.208.63.584c.15.245.22.531.22.856 0 .288-.05.539-.14.752-.1.208-.26.403-.49.584a5.5 5.5 0 0 1-.93.584q-.765.408-1.17.824c-.26.277-.4.525-.41.744h3.14V180zm4.83 0v-.904h.9V180zm3.75.128c-.4 0-.75-.067-1.04-.2q-.435-.2-.69-.56c-.16-.24-.26-.517-.29-.832l.72-.048c.05.32.18.563.41.728.24.16.53.24.89.24.4 0 .72-.112.95-.336.24-.229.35-.544.35-.944 0-.267-.05-.496-.16-.688-.1-.197-.25-.349-.44-.456q-.3-.16-.72-.16c-.26 0-.5.056-.71.168a.98.98 0 0 0-.45.472h-.74l.38-3.192h3.18v.672h-2.55l-.26 2.096-.13-.128c.09-.165.2-.301.34-.408.14-.112.31-.195.49-.248.18-.059.38-.088.58-.088.38 0 .71.085 1 .256.29.165.51.397.67.696q.24.44.24 1.008c0 .379-.08.717-.25 1.016a1.8 1.8 0 0 1-.71.688c-.31.165-.66.248-1.06.248M2106.19 307v-5.26h-1.48V301h.6c.26 0 .47-.033.62-.1a.6.6 0 0 0 .34-.34c.07-.16.1-.38.1-.66h.68v7.1zm5.17.16c-.57 0-1.07-.15-1.49-.45s-.74-.727-.98-1.28c-.22-.553-.34-1.21-.34-1.97s.12-1.417.34-1.97c.24-.56.56-.99.98-1.29.42-.307.92-.46 1.49-.46q.87 0 1.5.46c.42.3.75.727.97 1.28.24.553.35 1.213.35 1.98 0 .76-.11 1.417-.35 1.97-.22.553-.55.98-.97 1.28q-.63.45-1.5.45m0-.84c.62 0 1.09-.247 1.42-.74.34-.5.5-1.207.5-2.12 0-.613-.07-1.133-.23-1.56-.14-.433-.36-.76-.65-.98-.28-.227-.62-.34-1.04-.34-.4 0-.75.113-1.04.34-.28.22-.49.547-.65.98-.14.427-.22.947-.22 1.56 0 .913.17 1.62.5 2.12q.51.74 1.41.74M2105.92 434q0-.88.24-1.752c.16-.587.39-1.155.68-1.704.31-.549.67-1.067 1.09-1.552h-3.28v-.672h4.03v.624q-.705.816-1.17 1.616a6.1 6.1 0 0 0-.67 1.64c-.15.56-.22 1.16-.22 1.8zm2.32 0v-.904h.91V434zm3.76.128c-.4 0-.75-.067-1.04-.2q-.435-.2-.69-.56c-.17-.24-.26-.517-.29-.832l.72-.048c.04.32.18.563.41.728.23.16.53.24.89.24.4 0 .71-.112.95-.336.23-.229.35-.544.35-.944 0-.267-.05-.496-.16-.688q-.15-.296-.45-.456c-.2-.107-.43-.16-.71-.16-.26 0-.5.056-.71.168a.95.95 0 0 0-.46.472h-.73l.37-3.192h3.19v.672h-2.56l-.25 2.096-.13-.128c.09-.165.2-.301.34-.408q.21-.168.48-.248c.19-.059.39-.088.59-.088.38 0 .71.085 1 .256.29.165.51.397.67.696q.24.44.24 1.008c0 .379-.09.717-.26 1.016-.17.293-.4.523-.71.688q-.45.248-1.05.248M2109.49 561.16c-.5 0-.93-.083-1.3-.25-.36-.167-.65-.4-.86-.7a2.05 2.05 0 0 1-.36-1.04l.9-.06q.075.6.51.91.435.3 1.11.3c.5 0 .9-.14 1.19-.42.29-.287.44-.68.44-1.18 0-.333-.07-.62-.2-.86a1.3 1.3 0 0 0-.56-.57c-.25-.133-.54-.2-.89-.2-.33 0-.62.07-.89.21q-.405.21-.57.59h-.92l.47-3.99h3.98v.84h-3.19l-.32 2.62-.16-.16q.165-.31.42-.51c.18-.14.38-.243.61-.31.23-.073.48-.11.73-.11.47 0 .89.107 1.25.32q.54.31.84.87.3.55.3 1.26c0 .473-.11.897-.32 1.27-.21.367-.51.653-.89.86q-.57.31-1.32.31M2103.69 688c0-.4.07-.76.19-1.08q.195-.488.66-.928c.32-.293.77-.589 1.33-.888q.39-.209.63-.384c.16-.117.28-.243.35-.376a.93.93 0 0 0 .12-.488c0-.197-.05-.368-.13-.512a.87.87 0 0 0-.39-.352c-.16-.085-.37-.128-.62-.128-.4 0-.72.104-.95.312s-.37.504-.43.888l-.72-.048c.06-.555.27-.997.64-1.328.36-.331.85-.496 1.46-.496.39 0 .72.069 1 .208q.42.208.63.584c.15.245.23.531.23.856q0 .432-.15.752c-.09.208-.26.403-.49.584-.22.181-.53.376-.92.584-.52.272-.9.547-1.17.824q-.39.416-.42.744h3.15V688zm4.83 0v-.904h.9V688zm3.75.128c-.4 0-.74-.067-1.04-.2-.28-.133-.51-.32-.68-.56s-.27-.517-.29-.832l.72-.048c.04.32.18.563.41.728.23.16.53.24.88.24q.6 0 .96-.336c.23-.229.35-.544.35-.944 0-.267-.06-.496-.16-.688q-.15-.296-.45-.456c-.2-.107-.44-.16-.71-.16-.26 0-.5.056-.71.168a.95.95 0 0 0-.46.472h-.74l.38-3.192h3.18v.672h-2.55l-.25 2.096-.13-.128q.12-.248.33-.408c.15-.112.31-.195.49-.248.19-.059.38-.088.59-.088.37 0 .71.085 1 .256.28.165.51.397.67.696q.24.44.24 1.008c0 .379-.09.717-.26 1.016a1.8 1.8 0 0 1-.71.688c-.3.165-.66.248-1.06.248M2109.49 815.16c-.57 0-1.07-.15-1.49-.45s-.74-.727-.98-1.28c-.22-.553-.34-1.21-.34-1.97s.12-1.417.34-1.97c.24-.56.56-.99.98-1.29.42-.307.92-.46 1.49-.46q.87 0 1.5.46c.42.3.75.727.97 1.28.24.553.35 1.213.35 1.98 0 .76-.11 1.417-.35 1.97-.22.553-.55.98-.97 1.28q-.63.45-1.5.45m0-.84c.62 0 1.09-.247 1.42-.74.34-.5.5-1.207.5-2.12 0-.613-.07-1.133-.23-1.56-.14-.433-.36-.76-.65-.98-.28-.227-.62-.34-1.04-.34-.4 0-.75.113-1.04.34-.28.22-.49.547-.65.98-.14.427-.22.947-.22 1.56 0 .913.17 1.62.5 2.12q.51.74 1.41.74M50.495 845.16q-.86 0-1.49-.45t-.98-1.28q-.34-.83-.34-1.97t.34-1.97q.35-.84.98-1.29.63-.46 1.49-.46.87 0 1.5.46.63.45.97 1.28.35.83.35 1.98 0 1.14-.35 1.97-.34.83-.97 1.28t-1.5.45m0-.84q.92 0 1.42-.74.5-.75.5-2.12 0-.92-.23-1.56-.22-.65-.65-.98-.42-.34-1.04-.34-.61 0-1.04.34-.42.33-.65.98-.22.64-.22 1.56 0 1.37.5 2.12.5.74 1.41.74M171.695 845q0-.6.184-1.08.192-.488.664-.928.48-.44 1.328-.888.392-.209.632-.384a1.2 1.2 0 0 0 .352-.376 1 1 0 0 0 .112-.488 1 1 0 0 0-.128-.512.88.88 0 0 0-.384-.352 1.36 1.36 0 0 0-.624-.128q-.6 0-.952.312-.344.312-.432.888l-.72-.048q.096-.832.64-1.328t1.464-.496q.584 0 1 .208t.632.584q.224.368.224.856 0 .432-.144.752a1.6 1.6 0 0 1-.488.584 6 6 0 0 1-.928.584q-.768.408-1.168.824-.392.416-.416.744h3.144V845zm4.825 0v-.904h.904V845zm3.753.128q-.6 0-1.04-.2a1.7 1.7 0 0 1-.688-.56 1.7 1.7 0 0 1-.288-.832l.72-.048q.065.48.408.728.353.24.888.24.6 0 .952-.336.352-.344.352-.944 0-.4-.16-.688a1.06 1.06 0 0 0-.448-.456 1.5 1.5 0 0 0-.712-.16 1.5 1.5 0 0 0-.712.168.98.98 0 0 0-.456.472h-.736l.376-3.192h3.184v.672h-2.552l-.256 2.096-.128-.128q.129-.248.336-.408.216-.168.488-.248a2 2 0 0 1 .584-.088q.568 0 1 .256.432.247.672.696.24.44.24 1.008t-.256 1.016a1.8 1.8 0 0 1-.712.688 2.2 2.2 0 0 1-1.056.248M304.49 845.16q-.75 0-1.3-.25-.54-.25-.86-.7a2.1 2.1 0 0 1-.36-1.04l.9-.06q.08.6.51.91.44.3 1.11.3.75 0 1.19-.42.44-.43.44-1.18 0-.5-.2-.86a1.3 1.3 0 0 0-.56-.57q-.37-.2-.89-.2-.49 0-.89.21a1.22 1.22 0 0 0-.57.59h-.92l.47-3.99h3.98v.84h-3.19l-.32 2.62-.16-.16q.16-.31.42-.51.27-.21.61-.31a2.4 2.4 0 0 1 .73-.11q.71 0 1.25.32.54.31.84.87.3.55.3 1.26t-.32 1.27q-.32.55-.89.86t-1.32.31M427.916 845q0-.88.24-1.752.24-.88.688-1.704a9 9 0 0 1 1.088-1.552h-3.28v-.672h4.032v.624a10.6 10.6 0 0 0-1.176 1.616 6.5 6.5 0 0 0-.672 1.64 7.2 7.2 0 0 0-.216 1.8zm2.327 0v-.904h.904V845zm3.753.128a2.5 2.5 0 0 1-1.04-.2 1.7 1.7 0 0 1-.688-.56 1.7 1.7 0 0 1-.288-.832l.72-.048q.065.48.408.728.353.24.888.24.6 0 .952-.336.352-.344.352-.944 0-.4-.16-.688a1.06 1.06 0 0 0-.448-.456 1.5 1.5 0 0 0-.712-.16q-.392 0-.712.168a.98.98 0 0 0-.456.472h-.736l.376-3.192h3.184v.672h-2.552l-.256 2.096-.128-.128a1.2 1.2 0 0 1 .336-.408q.216-.168.488-.248.28-.088.584-.088.568 0 1 .256.432.247.672.696.24.44.24 1.008t-.256 1.016a1.8 1.8 0 0 1-.712.688 2.2 2.2 0 0 1-1.056.248M555.194 845v-5.26h-1.48V839h.6q.39 0 .62-.1a.6.6 0 0 0 .34-.34q.1-.24.1-.66h.68v7.1zm5.171.16q-.86 0-1.49-.45t-.98-1.28q-.34-.83-.34-1.97t.34-1.97q.35-.84.98-1.29.63-.46 1.49-.46.87 0 1.5.46.63.45.97 1.28.35.83.35 1.98 0 1.14-.35 1.97-.34.83-.97 1.28t-1.5.45m0-.84q.92 0 1.42-.74.5-.75.5-2.12 0-.92-.23-1.56-.22-.65-.65-.98-.42-.34-1.04-.34-.61 0-1.04.34-.42.33-.65.98-.22.64-.22 1.56 0 1.37.5 2.12.5.74 1.41.74M679.723 845v-4.208h-1.184v-.592h.48q.312 0 .496-.08a.49.49 0 0 0 .272-.272q.08-.192.08-.528h.544V845zm1.968 0q0-.6.184-1.08.192-.488.664-.928.48-.44 1.328-.888.392-.209.632-.384a1.2 1.2 0 0 0 .352-.376 1 1 0 0 0 .112-.488 1 1 0 0 0-.128-.512.88.88 0 0 0-.384-.352 1.36 1.36 0 0 0-.624-.128q-.6 0-.952.312-.344.312-.432.888l-.72-.048q.096-.832.64-1.328t1.464-.496q.584 0 1 .208t.632.584q.224.368.224.856 0 .432-.144.752a1.6 1.6 0 0 1-.488.584 6 6 0 0 1-.928.584q-.768.408-1.168.824-.392.416-.416.744h3.144V845zm4.825 0v-.904h.904V845zm3.753.128q-.6 0-1.04-.2a1.7 1.7 0 0 1-.688-.56 1.7 1.7 0 0 1-.288-.832l.72-.048q.064.48.408.728.353.24.888.24.6 0 .952-.336.352-.344.352-.944 0-.4-.16-.688a1.06 1.06 0 0 0-.448-.456 1.5 1.5 0 0 0-.712-.16 1.5 1.5 0 0 0-.712.168.98.98 0 0 0-.456.472h-.736l.376-3.192h3.184v.672h-2.552l-.256 2.096-.128-.128q.129-.248.336-.408.216-.168.488-.248a2 2 0 0 1 .584-.088q.568 0 1 .256.432.247.672.696.24.44.24 1.008t-.256 1.016a1.8 1.8 0 0 1-.712.688 2.2 2.2 0 0 1-1.056.248M809.331 845v-5.26h-1.48V839h.6q.39 0 .62-.1a.6.6 0 0 0 .34-.34q.1-.24.1-.66h.68v7.1zm5.078.16q-.75 0-1.3-.25-.54-.25-.86-.7a2.1 2.1 0 0 1-.36-1.04l.9-.06q.08.6.51.91.44.3 1.11.3.75 0 1.19-.42.44-.43.44-1.18 0-.5-.2-.86a1.3 1.3 0 0 0-.56-.57q-.37-.2-.89-.2-.49 0-.89.21a1.22 1.22 0 0 0-.57.59h-.92l.47-3.99h3.98v.84h-3.19l-.32 2.62-.16-.16q.16-.31.42-.51.27-.21.61-.31a2.4 2.4 0 0 1 .73-.11q.71 0 1.25.32.54.31.84.87.3.55.3 1.26t-.32 1.27q-.32.55-.89.86t-1.32.31M933.961 845v-4.208h-1.184v-.592h.48q.312 0 .496-.08a.49.49 0 0 0 .272-.272q.08-.192.08-.528h.544V845zm2.99 0q0-.88.24-1.752.24-.88.688-1.704a9 9 0 0 1 1.088-1.552h-3.28v-.672h4.032v.624a10.6 10.6 0 0 0-1.176 1.616 6.5 6.5 0 0 0-.672 1.64 7.2 7.2 0 0 0-.216 1.8zm2.327 0v-.904h.904V845zm3.753.128a2.5 2.5 0 0 1-1.04-.2 1.7 1.7 0 0 1-.688-.56 1.7 1.7 0 0 1-.288-.832l.72-.048q.064.48.408.728.352.24.888.24.6 0 .952-.336.352-.344.352-.944 0-.4-.16-.688a1.06 1.06 0 0 0-.448-.456 1.5 1.5 0 0 0-.712-.16q-.392 0-.712.168a.98.98 0 0 0-.456.472h-.736l.376-3.192h3.184v.672h-2.552l-.256 2.096-.128-.128a1.2 1.2 0 0 1 .336-.408q.216-.168.488-.248.28-.088.584-.088.568 0 1 .256.432.247.672.696.24.44.24 1.008t-.256 1.016a1.8 1.8 0 0 1-.712.688 2.2 2.2 0 0 1-1.056.248M1060.74 845c0-.5.07-.95.23-1.35.16-.407.43-.793.83-1.16s.95-.737 1.66-1.11c.32-.173.59-.333.79-.48s.34-.303.44-.47c.09-.167.14-.37.14-.61a1.3 1.3 0 0 0-.16-.64 1.14 1.14 0 0 0-.48-.44q-.315-.16-.78-.16c-.5 0-.9.13-1.19.39q-.435.39-.54 1.11l-.9-.06c.08-.693.34-1.247.8-1.66q.675-.62 1.83-.62c.48 0 .9.087 1.25.26.34.173.61.417.79.73.18.307.28.663.28 1.07q0 .54-.18.94c-.12.26-.33.503-.61.73s-.67.47-1.16.73c-.64.34-1.13.683-1.46 1.03s-.5.657-.52.93h3.93v.84zm8.8.16c-.57 0-1.07-.15-1.49-.45s-.75-.727-.98-1.28-.34-1.21-.34-1.97.11-1.417.34-1.97c.23-.56.56-.99.98-1.29.42-.307.92-.46 1.49-.46q.87 0 1.5.46c.42.3.74.727.97 1.28s.35 1.213.35 1.98c0 .76-.12 1.417-.35 1.97s-.55.98-.97 1.28q-.63.45-1.5.45m0-.84c.61 0 1.09-.247 1.42-.74.33-.5.5-1.207.5-2.12 0-.613-.08-1.133-.23-1.56-.15-.433-.36-.76-.65-.98-.28-.227-.63-.34-1.04-.34s-.75.113-1.04.34c-.28.22-.5.547-.65.98-.15.427-.22.947-.22 1.56 0 .913.17 1.62.5 2.12q.495.74 1.41.74M1185.72 845q0-.6.18-1.08c.13-.325.35-.635.67-.928q.48-.44 1.32-.888c.27-.139.48-.267.64-.384s.27-.243.35-.376c.07-.133.11-.296.11-.488a.95.95 0 0 0-.13-.512.85.85 0 0 0-.38-.352 1.4 1.4 0 0 0-.63-.128c-.4 0-.71.104-.95.312-.23.208-.37.504-.43.888l-.72-.048c.06-.555.28-.997.64-1.328s.85-.496 1.46-.496c.39 0 .73.069 1 .208.28.139.49.333.64.584.15.245.22.531.22.856 0 .288-.05.539-.14.752-.1.208-.26.403-.49.584q-.345.272-.93.584-.765.408-1.17.824c-.26.277-.4.525-.41.744h3.14V845zm4.95 0c0-.4.06-.76.19-1.08q.18-.488.66-.928c.32-.293.76-.589 1.33-.888q.39-.209.63-.384c.16-.117.28-.243.35-.376.08-.133.11-.296.11-.488q0-.296-.12-.512a.93.93 0 0 0-.39-.352c-.16-.085-.37-.128-.62-.128-.4 0-.72.104-.95.312s-.38.504-.44.888l-.72-.048c.07-.555.28-.997.64-1.328.37-.331.85-.496 1.47-.496.39 0 .72.069 1 .208.27.139.49.333.63.584.15.245.22.531.22.856 0 .288-.04.539-.14.752-.1.208-.26.403-.49.584a5.5 5.5 0 0 1-.93.584c-.51.272-.9.547-1.16.824-.27.277-.4.525-.42.744h3.14V845zm4.83 0v-.904h.9V845zm3.75.128c-.4 0-.75-.067-1.04-.2q-.435-.2-.69-.56c-.16-.24-.26-.517-.29-.832l.72-.048c.05.32.18.563.41.728.24.16.53.24.89.24.4 0 .72-.112.95-.336.24-.229.35-.544.35-.944 0-.267-.05-.496-.16-.688-.1-.197-.25-.349-.44-.456q-.3-.16-.72-.16c-.26 0-.49.056-.71.168a.98.98 0 0 0-.45.472h-.74l.38-3.192h3.18v.672h-2.55l-.26 2.096-.13-.128c.09-.165.2-.301.34-.408.14-.112.31-.195.49-.248.18-.059.38-.088.58-.088.38 0 .71.085 1 .256.29.165.51.397.67.696q.24.44.24 1.008c0 .379-.08.717-.25 1.016a1.8 1.8 0 0 1-.71.688c-.31.165-.66.248-1.06.248M1314.87 845c0-.5.08-.95.23-1.35.16-.407.44-.793.83-1.16.4-.367.96-.737 1.66-1.11.33-.173.59-.333.79-.48s.35-.303.44-.47c.1-.167.14-.37.14-.61a1.2 1.2 0 0 0-.16-.64q-.15-.28-.48-.44-.3-.16-.78-.16c-.5 0-.89.13-1.19.39q-.42.39-.54 1.11l-.9-.06c.08-.693.35-1.247.8-1.66q.69-.62 1.83-.62c.49 0 .91.087 1.25.26.35.173.61.417.79.73.19.307.28.663.28 1.07q0 .54-.18.94c-.12.26-.32.503-.61.73-.28.227-.66.47-1.16.73-.64.34-1.12.683-1.46 1.03-.32.347-.5.657-.52.93h3.93v.84zm8.72.16c-.5 0-.94-.083-1.3-.25s-.65-.4-.86-.7a2.05 2.05 0 0 1-.36-1.04l.9-.06q.075.6.51.91.435.3 1.11.3c.5 0 .89-.14 1.19-.42.29-.287.44-.68.44-1.18 0-.333-.07-.62-.2-.86a1.37 1.37 0 0 0-.56-.57 1.9 1.9 0 0 0-.89-.2c-.33 0-.63.07-.89.21q-.405.21-.57.59h-.92l.47-3.99h3.98v.84h-3.19l-.32 2.62-.16-.16q.15-.31.42-.51c.18-.14.38-.243.61-.31.23-.073.47-.11.73-.11.47 0 .89.107 1.25.32q.54.31.84.87.3.55.3 1.26c0 .473-.11.897-.32 1.27a2.3 2.3 0 0 1-.89.86q-.57.31-1.32.31M1440.55 845c0-.4.07-.76.19-1.08q.195-.488.66-.928c.32-.293.76-.589 1.33-.888q.39-.209.63-.384c.16-.117.28-.243.35-.376a.93.93 0 0 0 .12-.488c0-.197-.05-.368-.13-.512a.93.93 0 0 0-.39-.352c-.16-.085-.37-.128-.62-.128-.4 0-.72.104-.95.312s-.38.504-.43.888l-.72-.048c.06-.555.27-.997.64-1.328.36-.331.85-.496 1.46-.496.39 0 .72.069 1 .208q.42.208.63.584c.15.245.23.531.23.856q0 .432-.15.752c-.09.208-.26.403-.49.584-.22.181-.53.376-.92.584q-.78.408-1.17.824t-.42.744h3.15V845zm5.78 0q0-.88.24-1.752.24-.88.69-1.704c.31-.549.67-1.067 1.09-1.552h-3.28v-.672h4.03v.624q-.705.816-1.17 1.616a6.5 6.5 0 0 0-.68 1.64q-.21.84-.21 1.8zm2.33 0v-.904h.9V845zm3.75.128c-.4 0-.74-.067-1.04-.2-.28-.133-.51-.32-.68-.56s-.27-.517-.29-.832l.72-.048c.04.32.18.563.41.728.23.16.53.24.88.24q.6 0 .96-.336c.23-.229.35-.544.35-.944 0-.267-.06-.496-.16-.688q-.15-.296-.45-.456c-.2-.107-.43-.16-.71-.16-.26 0-.5.056-.71.168a.95.95 0 0 0-.46.472h-.74l.38-3.192h3.18v.672h-2.55l-.25 2.096-.13-.128c.08-.165.2-.301.33-.408.15-.112.31-.195.49-.248.19-.059.38-.088.59-.088.37 0 .71.085 1 .256.28.165.51.397.67.696q.24.44.24 1.008c0 .379-.09.717-.26 1.016a1.8 1.8 0 0 1-.71.688c-.3.165-.66.248-1.06.248M1571.13 845.16c-.79 0-1.4-.183-1.82-.55q-.645-.56-.69-1.44l.89-.06c.04.433.2.743.5.93s.67.28 1.12.28c.3 0 .59-.04.85-.12q.39-.13.63-.41.24-.29.24-.77c0-.473-.16-.82-.47-1.04-.32-.22-.73-.33-1.24-.33h-.56v-.84h.56c.42 0 .76-.083 1.04-.25q.42-.25.42-.86 0-.55-.36-.83c-.24-.193-.59-.29-1.06-.29s-.82.09-1.06.27q-.36.27-.42.74l-.9-.06c.06-.533.3-.963.71-1.29.4-.333.96-.5 1.67-.5.48 0 .89.08 1.24.24.34.153.61.373.8.66.18.287.28.627.28 1.02q0 .66-.42 1.07c-.28.267-.68.45-1.22.55v-.18q.87.1 1.38.62t.51 1.3c0 .453-.12.84-.34 1.16s-.53.563-.92.73c-.4.167-.85.25-1.36.25m6.43 0c-.57 0-1.07-.15-1.49-.45s-.75-.727-.98-1.28-.34-1.21-.34-1.97.11-1.417.34-1.97c.23-.56.56-.99.98-1.29.42-.307.92-.46 1.49-.46q.87 0 1.5.46c.42.3.74.727.97 1.28s.35 1.213.35 1.98c0 .76-.12 1.417-.35 1.97s-.55.98-.97 1.28q-.63.45-1.5.45m0-.84c.61 0 1.09-.247 1.42-.74.33-.5.5-1.207.5-2.12 0-.613-.08-1.133-.23-1.56-.15-.433-.36-.76-.65-.98-.28-.227-.63-.34-1.04-.34s-.75.113-1.04.34c-.28.22-.5.547-.65.98-.15.427-.22.947-.22 1.56 0 .913.17 1.62.5 2.12q.495.74 1.41.74M1695.67 845.128c-.63 0-1.11-.147-1.46-.44-.34-.299-.52-.683-.55-1.152l.71-.048c.04.347.17.595.4.744q.36.224.9.224c.25 0 .47-.032.68-.096.21-.069.38-.179.5-.328.13-.155.2-.36.2-.616 0-.379-.13-.656-.38-.832q-.375-.264-.99-.264h-.45v-.672h.45c.33 0 .61-.067.83-.2s.34-.363.34-.688c0-.293-.1-.515-.29-.664-.19-.155-.47-.232-.85-.232-.37 0-.66.072-.85.216a.87.87 0 0 0-.33.592l-.72-.048c.05-.427.24-.771.56-1.032.33-.267.77-.4 1.34-.4q.57 0 .99.192c.28.123.49.299.64.528s.23.501.23.816c0 .352-.12.637-.34.856-.22.213-.54.36-.98.44v-.144q.705.08 1.11.496c.27.277.41.624.41 1.04 0 .363-.09.672-.28.928a1.6 1.6 0 0 1-.73.584c-.32.133-.68.2-1.09.2m2.98-.128q0-.6.18-1.08c.13-.325.35-.635.67-.928q.48-.44 1.32-.888c.27-.139.48-.267.64-.384s.27-.243.35-.376c.07-.133.11-.296.11-.488a.95.95 0 0 0-.13-.512.85.85 0 0 0-.38-.352 1.4 1.4 0 0 0-.63-.128c-.4 0-.71.104-.95.312-.23.208-.37.504-.43.888l-.72-.048c.06-.555.28-.997.64-1.328s.85-.496 1.46-.496c.39 0 .73.069 1 .208.28.139.49.333.64.584.15.245.22.531.22.856 0 .288-.05.539-.14.752-.1.208-.26.403-.49.584q-.345.272-.93.584-.765.408-1.17.824c-.26.277-.4.525-.41.744h3.14V845zm4.82 0v-.904h.91V845zm3.76.128c-.4 0-.75-.067-1.04-.2q-.435-.2-.69-.56c-.17-.24-.26-.517-.29-.832l.72-.048c.04.32.18.563.41.728.23.16.53.24.89.24.4 0 .71-.112.95-.336.23-.229.35-.544.35-.944 0-.267-.05-.496-.16-.688q-.15-.296-.45-.456c-.19-.107-.43-.16-.71-.16-.26 0-.5.056-.71.168a1 1 0 0 0-.46.472h-.73l.37-3.192h3.19v.672h-2.56l-.25 2.096-.13-.128c.09-.165.2-.301.34-.408q.21-.168.48-.248c.19-.059.39-.088.59-.088.38 0 .71.085 1 .256.29.165.51.397.67.696q.24.44.24 1.008c0 .379-.08.717-.26 1.016-.17.293-.4.523-.71.688q-.45.248-1.05.248M1825.31 845.16c-.78 0-1.39-.183-1.82-.55q-.63-.56-.69-1.44l.89-.06c.04.433.21.743.5.93.3.187.68.28 1.12.28.31 0 .59-.04.85-.12q.39-.13.63-.41.24-.29.24-.77c0-.473-.15-.82-.47-1.04-.31-.22-.72-.33-1.24-.33h-.56v-.84h.56c.42 0 .77-.083 1.04-.25q.42-.25.42-.86 0-.55-.36-.83c-.23-.193-.58-.29-1.06-.29-.46 0-.82.09-1.06.27q-.345.27-.42.74l-.9-.06c.07-.533.31-.963.71-1.29.41-.333.97-.5 1.67-.5.48 0 .9.08 1.24.24.35.153.62.373.8.66.19.287.28.627.28 1.02q0 .66-.42 1.07c-.27.267-.68.45-1.22.55v-.18q.87.1 1.38.62t.51 1.3c0 .453-.11.84-.34 1.16-.22.32-.52.563-.92.73-.39.167-.84.25-1.36.25m6.25 0c-.5 0-.94-.083-1.3-.25s-.65-.4-.86-.7a2.05 2.05 0 0 1-.36-1.04l.9-.06q.075.6.51.91.435.3 1.11.3c.5 0 .89-.14 1.19-.42.29-.287.44-.68.44-1.18 0-.333-.07-.62-.2-.86a1.37 1.37 0 0 0-.56-.57 1.9 1.9 0 0 0-.89-.2c-.33 0-.63.07-.89.21q-.405.21-.57.59h-.92l.47-3.99h3.98v.84h-3.19l-.32 2.62-.16-.16q.15-.31.42-.51c.18-.14.38-.243.61-.31.23-.073.47-.11.73-.11.47 0 .89.107 1.25.32q.54.31.84.87.3.55.3 1.26c0 .473-.11.897-.32 1.27a2.3 2.3 0 0 1-.89.86q-.57.31-1.32.31M1950.53 845.128c-.63 0-1.12-.147-1.46-.44a1.57 1.57 0 0 1-.55-1.152l.71-.048c.03.347.16.595.4.744q.36.224.9.224c.24 0 .47-.032.68-.096.2-.069.37-.179.5-.328.13-.155.19-.36.19-.616 0-.379-.12-.656-.37-.832-.26-.176-.59-.264-1-.264h-.44v-.672h.44q.51 0 .84-.2t.33-.688c0-.293-.09-.515-.29-.664-.18-.155-.47-.232-.84-.232-.38 0-.66.072-.85.216a.88.88 0 0 0-.34.592l-.72-.048q.075-.64.57-1.032c.32-.267.77-.4 1.34-.4q.57 0 .99.192c.27.123.49.299.64.528s.22.501.22.816q0 .528-.33.856c-.22.213-.55.36-.98.44v-.144c.46.053.83.219 1.1.496.28.277.41.624.41 1.04q0 .544-.27.928a1.65 1.65 0 0 1-.74.584q-.465.2-1.08.2m3.76-.128q0-.88.24-1.752.24-.88.69-1.704c.3-.549.67-1.067 1.09-1.552h-3.28v-.672h4.03v.624a10.2 10.2 0 0 0-1.18 1.616c-.3.528-.52 1.075-.67 1.64q-.21.84-.21 1.8zm2.33 0v-.904h.9V845zm3.75.128c-.4 0-.75-.067-1.04-.2q-.435-.2-.69-.56c-.16-.24-.26-.517-.28-.832l.72-.048c.04.32.17.563.4.728.24.16.53.24.89.24.4 0 .72-.112.95-.336q.36-.344.36-.944c0-.267-.06-.496-.16-.688a1.16 1.16 0 0 0-.45-.456c-.2-.107-.44-.16-.71-.16s-.5.056-.72.168a.98.98 0 0 0-.45.472h-.74l.38-3.192h3.18v.672h-2.55l-.26 2.096-.12-.128q.12-.248.33-.408c.15-.112.31-.195.49-.248.19-.059.38-.088.58-.088.38 0 .72.085 1 .256.29.165.52.397.68.696.16.293.23.629.23 1.008s-.08.717-.25 1.016a1.8 1.8 0 0 1-.71.688c-.31.165-.66.248-1.06.248M2080.02 845v-1.54h-3.61v-.78l3.55-4.78h.92v4.72h.88v.84h-.88V845zm-2.57-2.38h2.57v-3.4zm8.12 2.54c-.57 0-1.07-.15-1.49-.45s-.75-.727-.98-1.28-.34-1.21-.34-1.97.11-1.417.34-1.97c.23-.56.56-.99.98-1.29.42-.307.92-.46 1.49-.46q.87 0 1.5.46c.42.3.74.727.97 1.28s.35 1.213.35 1.98c0 .76-.12 1.417-.35 1.97s-.55.98-.97 1.28q-.63.45-1.5.45m0-.84c.61 0 1.09-.247 1.42-.74.33-.5.5-1.207.5-2.12 0-.613-.08-1.133-.23-1.56-.15-.433-.36-.76-.65-.98-.28-.227-.63-.34-1.04-.34s-.75.113-1.04.34c-.28.22-.5.547-.65.98-.15.427-.22.947-.22 1.56 0 .913.17 1.62.5 2.12q.495.74 1.41.74" style="fill:#7f7f7f;fill:color(display-p3 .498 .498 .498);fill-opacity:1"/><path stroke="#7f7f7f" stroke-dasharray="3 2" stroke-opacity=".415" d="m50 812 2032-544.47" style="stroke:#7f7f7f;stroke:color(display-p3 .498 .498 .498);stroke-opacity:.415"/><path fill="#7f7f7f" d="M266.12 755.83v-5.26h-1.48v-.74h.6q.39 0 .62-.1a.6.6 0 0 0 .34-.34q.1-.24.1-.66h.68v7.1zm5.078.16q-.75 0-1.3-.25-.54-.25-.86-.7a2.1 2.1 0 0 1-.36-1.04l.9-.06q.08.6.51.91.44.3 1.11.3.75 0 1.19-.42.44-.43.44-1.18 0-.5-.2-.86a1.32 1.32 0 0 0-.56-.57 1.85 1.85 0 0 0-.89-.2q-.49 0-.89.21a1.22 1.22 0 0 0-.57.59h-.92l.47-3.99h3.98v.84h-3.19l-.32 2.62-.16-.16a1.5 1.5 0 0 1 .42-.51q.27-.21.61-.31.35-.11.73-.11.71 0 1.25.32.54.31.84.87.3.55.3 1.26t-.32 1.27a2.26 2.26 0 0 1-.89.86q-.57.31-1.32.31m5.159-4.26q-.43 0-.79-.21a1.7 1.7 0 0 1-.58-.56q-.21-.36-.21-.81t.21-.81q.22-.36.58-.56.36-.21.79-.21t.79.21q.36.2.57.56.22.36.22.81t-.22.81a1.59 1.59 0 0 1-1.36.77m0-.74a.82.82 0 0 0 .84-.84.82.82 0 0 0-.25-.62.82.82 0 0 0-.59-.24.83.83 0 0 0-.59.24.82.82 0 0 0-.25.62q0 .37.25.61.25.23.59.23" style="fill:#7f7f7f;fill:color(display-p3 .498 .498 .498);fill-opacity:1"/><path stroke="#7f7f7f" stroke-dasharray="3 2" stroke-opacity=".415" d="M50 812 1369.82 50" style="stroke:#7f7f7f;stroke:color(display-p3 .498 .498 .498);stroke-opacity:.415"/><path fill="#7f7f7f" d="M243.077 700.86q-1.18 0-1.82-.55-.64-.56-.69-1.44l.89-.06q.06.651.5.93.45.28 1.12.28.46 0 .85-.12.39-.13.63-.41.24-.29.24-.77 0-.71-.47-1.04t-1.24-.33h-.56v-.84h.56q.63 0 1.04-.25.42-.25.42-.86 0-.55-.36-.83-.35-.29-1.06-.29-.7 0-1.06.27-.351.27-.42.74l-.9-.06a1.9 1.9 0 0 1 .71-1.29q.61-.5 1.67-.5.72 0 1.24.24.52.231.8.66t.28 1.02q0 .66-.42 1.07-.41.4-1.22.55v-.18q.87.1 1.38.62t.51 1.3q0 .68-.34 1.16-.33.48-.92.73t-1.36.25m6.432 0q-.86 0-1.49-.45t-.98-1.28q-.34-.83-.34-1.97t.34-1.97q.35-.84.98-1.29.63-.46 1.49-.46.87 0 1.5.46.63.45.97 1.28.35.831.35 1.98 0 1.14-.35 1.97-.34.83-.97 1.28t-1.5.45m0-.84q.92 0 1.42-.74.5-.75.5-2.12 0-.92-.23-1.56-.22-.65-.65-.98-.42-.34-1.04-.34a1.63 1.63 0 0 0-1.04.34q-.42.33-.65.98-.22.64-.22 1.56 0 1.37.5 2.12.501.74 1.41.74m5.341-3.42q-.43 0-.79-.21a1.66 1.66 0 0 1-.58-.56q-.21-.36-.21-.81t.21-.81q.22-.36.58-.56.36-.21.79-.21t.79.21q.36.2.57.56.22.36.22.81t-.22.81a1.58 1.58 0 0 1-1.36.77m0-.74a.816.816 0 0 0 .84-.84.82.82 0 0 0-.25-.62.82.82 0 0 0-.59-.24.83.83 0 0 0-.59.24.82.82 0 0 0-.25.62q0 .37.25.61.25.23.59.23" style="fill:#7f7f7f;fill:color(display-p3 .498 .498 .498);fill-opacity:1"/><path stroke="#7f7f7f" stroke-dasharray="3 2" stroke-opacity=".415" d="M50 812 812 50" style="stroke:#7f7f7f;stroke:color(display-p3 .498 .498 .498);stroke-opacity:.415"/><path fill="#7f7f7f" d="M207.822 653.36v-1.54h-3.61v-.78l3.55-4.78h.92v4.72h.88v.84h-.88v1.54zm-2.57-2.38h2.57v-3.4zm7.933 2.54q-.75 0-1.3-.25a2.1 2.1 0 0 1-.86-.7 2.1 2.1 0 0 1-.36-1.04l.9-.06q.08.6.51.91.44.3 1.11.3.75 0 1.19-.42.44-.43.44-1.18 0-.5-.2-.86a1.33 1.33 0 0 0-.56-.57 1.85 1.85 0 0 0-.89-.2q-.49 0-.89.21a1.22 1.22 0 0 0-.57.59h-.92l.47-3.99h3.98v.84h-3.19l-.32 2.62-.16-.16q.159-.309.42-.51.27-.21.61-.31.35-.11.73-.11.71 0 1.25.32.54.31.84.87.3.55.3 1.26t-.32 1.27q-.32.55-.89.86t-1.32.31m5.159-4.26q-.43 0-.79-.21a1.66 1.66 0 0 1-.58-.56q-.21-.36-.21-.81t.21-.81q.22-.36.58-.56.36-.21.79-.21t.79.21q.36.2.57.56.22.36.22.81t-.22.81a1.58 1.58 0 0 1-1.36.77m0-.74a.816.816 0 0 0 .84-.84.82.82 0 0 0-.25-.62.82.82 0 0 0-.59-.24.83.83 0 0 0-.59.24.82.82 0 0 0-.25.62q0 .37.25.61.25.23.59.23" style="fill:#7f7f7f;fill:color(display-p3 .498 .498 .498);fill-opacity:1"/><path stroke="#7f7f7f" stroke-dasharray="3 2" stroke-opacity=".415" d="M50 812 489.94 50" style="stroke:#7f7f7f;stroke:color(display-p3 .498 .498 .498);stroke-opacity:.415"/><path fill="#7f7f7f" d="M159.463 617.19q-.8 0-1.37-.36-.56-.369-.86-1.08-.29-.71-.29-1.72 0-.879.14-1.65.15-.77.47-1.35.33-.59.86-.92.54-.34 1.33-.34.95 0 1.47.47.52.46.73 1.21l-.9.08q-.12-.42-.42-.67-.29-.25-.88-.25-.88 0-1.39.75-.5.75-.53 2.27l-.18-.04q.11-.36.38-.66a2 2 0 0 1 .68-.49q.41-.19.92-.19.7 0 1.23.3t.82.85q.3.54.3 1.27 0 .78-.32 1.35-.32.561-.89.87-.56.3-1.3.3m.02-.84q.7 0 1.14-.44.45-.45.45-1.24 0-.49-.19-.85a1.3 1.3 0 0 0-.53-.55q-.34-.2-.79-.2-.48 0-.86.2-.38.19-.6.55t-.22.85.19.87q.2.381.56.6.36.21.85.21m6.41.84q-.86 0-1.49-.45t-.98-1.28q-.34-.83-.34-1.97t.34-1.97q.35-.84.98-1.29.63-.46 1.49-.46.87 0 1.5.46.63.45.97 1.28.35.831.35 1.98 0 1.14-.35 1.97-.34.83-.97 1.28t-1.5.45m0-.84q.92 0 1.42-.74.5-.75.5-2.12 0-.92-.23-1.56-.22-.65-.65-.98-.42-.34-1.04-.34a1.63 1.63 0 0 0-1.04.34q-.42.33-.65.98-.22.64-.22 1.56 0 1.37.5 2.12.501.74 1.41.74m5.341-3.42q-.43 0-.79-.21a1.66 1.66 0 0 1-.58-.56q-.21-.36-.21-.81t.21-.81q.22-.36.58-.56.36-.21.79-.21t.79.21q.36.2.57.56.22.36.22.81t-.22.81a1.58 1.58 0 0 1-1.36.77m0-.74a.82.82 0 0 0 .84-.84.82.82 0 0 0-.25-.62.82.82 0 0 0-.59-.24.82.82 0 0 0-.59.24.82.82 0 0 0-.25.62q0 .37.25.61a.84.84 0 0 0 .59.23" style="fill:#7f7f7f;fill:color(display-p3 .498 .498 .498);fill-opacity:1"/></g><defs><clipPath id="a"><path fill="#fff" d="M0 0h2132v862H0z" style="fill:#fff;fill-opacity:1"/></clipPath></defs></svg>