<svg width="1000" height="1000" viewBox="0 0 1000 1000" fill="none" xmlns="http://www.w3.org/2000/svg">
<path d="M395.237 224.025L395.214 282.844L395.238 660.956L311.109 716.087L311.135 269.776L300.174 229.867L311.109 189.66L369.384 207.895L395.237 224.025Z" fill="black"/>
<path d="M528.718 369.542L528.718 606.838L448.072 652.278L449.579 402.299C450.106 374.699 440.192 360.023 421.417 363.208C405.531 365.903 389.314 379.807 372.142 396.847L444.232 296.137C502.723 286.215 529.049 314.465 528.718 369.542Z" fill="black"/>
<path d="M727.062 433.41C720.978 433.41 715.264 432.26 709.923 429.959C704.65 427.726 699.984 424.613 695.928 420.62C691.939 416.56 688.795 411.89 686.496 406.612C684.265 401.266 683.149 395.547 683.149 389.457C683.149 383.366 684.265 377.682 686.496 372.403C688.795 367.057 691.939 362.388 695.928 358.395C699.984 354.335 704.65 351.188 709.923 348.955C715.264 346.654 720.978 345.504 727.062 345.504C733.147 345.504 738.827 346.654 744.1 348.955C749.442 351.188 754.107 354.335 758.096 358.395C762.152 362.388 765.296 367.057 767.527 372.403C769.826 377.682 770.976 383.366 770.976 389.457C770.976 395.547 769.826 401.266 767.527 406.612C765.296 411.89 762.152 416.56 758.096 420.62C754.107 424.613 749.442 427.726 744.1 429.959C738.827 432.26 733.147 433.41 727.062 433.41ZM727.062 424.376C731.93 424.376 736.46 423.496 740.652 421.737C744.844 419.909 748.529 417.406 751.707 414.225C754.952 410.977 757.453 407.255 759.211 403.059C761.037 398.796 761.95 394.262 761.95 389.457C761.95 384.584 761.037 380.05 759.211 375.855C757.453 371.659 754.952 367.971 751.707 364.79C748.529 361.542 744.81 359.038 740.551 357.279C736.359 355.452 731.863 354.538 727.062 354.538C722.195 354.538 717.665 355.452 713.473 357.279C709.281 359.038 705.562 361.542 702.317 364.79C699.139 367.971 696.638 371.693 694.812 375.956C693.054 380.152 692.175 384.652 692.175 389.457C692.175 394.329 693.054 398.863 694.812 403.059C696.638 407.255 699.139 410.977 702.317 414.225C705.562 417.406 709.281 419.909 713.473 421.737C717.732 423.496 722.262 424.376 727.062 424.376Z" fill="black"/>
<path d="M656.024 557.668L656.024 573.751L640.91 595.421L581.686 579.657L582.347 355.085C582.769 327.484 572.8 312.845 554.037 316.101C538.161 318.856 521.996 332.821 504.889 349.926L576.599 248.944C635.052 238.801 661.485 266.951 661.361 322.03L660.576 545.879L656.024 557.668Z" fill="black"/>
<path fill-rule="evenodd" clip-rule="evenodd" d="M581.688 578.902C581.915 590.401 583.017 602.737 585.322 614.697C564.43 630.901 541.97 648.291 517.984 666.41C394.846 759.43 267.514 809.261 238.687 691.007C222.622 625.106 268.947 570.79 291.616 549.575L293.034 546.737C247.823 565.342 163.168 631.691 184.34 750.134C217.588 936.137 449.732 769.306 596.082 648.073C610.495 676.84 637.497 692.543 684.806 666.41C784.994 611.067 813.349 522.14 762.782 507.477C743.131 501.778 709.191 521.574 661.969 556.166C661.508 548.779 661.109 540.894 660.704 532.547C658.399 485.092 619.417 532.847 592.637 565.654C588.666 570.518 584.963 575.054 581.688 578.902ZM707.01 553.834C742.926 525.926 775.535 516.466 773.644 541.535C771.754 566.605 747.18 611.542 707.01 624.786C682.61 632.831 668.731 620.529 665.423 588.198L707.01 553.834Z" fill="black"/>
<path d="M332.257 158.391C381.406 153.85 395.111 189.61 395.111 225.087L310.991 281.375C310.991 193.868 198.758 308.239 214.526 354.766C226.089 388.88 274.602 350.909 307.683 323.001C337.95 297.467 379.59 266.73 466.471 227.925C554.371 188.664 704.563 164.925 781.212 179.204C839.335 190.032 854.574 246.468 816.656 283.268C788.193 310.89 728.089 307.481 645.58 238.842C781.212 334.864 838.507 181.668 705.23 186.981C446.335 197.302 348.325 323.001 274.602 375.033C237.236 401.405 190.509 402.051 186.699 341.448C181.89 264.971 270.821 164.068 332.257 158.391Z" fill="black"/>
<path d="M726.215 412.874C740.834 412.874 747.187 406.786 747.187 399.376C747.187 394.083 743.87 390.907 737.129 388.172L728.997 384.819C723.005 382.437 721.293 380.849 721.293 378.379C721.293 375.38 724.182 373.086 729.211 373.086C732.314 373.086 734.882 374.145 737.236 375.556L739.697 381.908H745.689V372.027C742.586 370.351 736.915 368.41 729.96 368.41C714.969 368.41 709.737 375.291 709.737 381.29C709.737 385.966 713.268 389.495 719.367 391.965L727.606 395.494C733.598 398.052 734.882 399.288 734.882 402.022C734.882 405.816 731.779 408.021 726.964 408.021C723.754 408.021 717.013 405.774 714.552 404.098L711.595 398.052H707.49V409.168C712.412 411.286 721.828 412.874 726.215 412.874Z" fill="black"/>
</svg>
